<?xml version="1.0" encoding="utf-8"?>
<!-- Generator: Adobe Illustrator 27.5.0, SVG Export Plug-In . SVG Version: 6.00 Build 0)  -->
<svg version="1.1" id="Слой_1" xmlns="http://www.w3.org/2000/svg" xmlns:xlink="http://www.w3.org/1999/xlink" x="0px" y="0px"
	 viewBox="0 0 3380 2000" style="enable-background:new 0 0 3380 2000;" xml:space="preserve">
<g>
	<rect y="0.001" style="fill:#FFFFFF;" width="3380" height="1999.999"/>
	<path style="fill:#E3EAFF;" d="M171.829,1946.127c-268.395-382.154-115.212-766.398,194.029-984.468
		c314.356-221.679-40.527-680.303,585.147-866.924c323.673-96.544,608.307,166.748,925.561,178.187
		c284.281,10.252,578.361-221.939,866.997-114.379c193.021,61.919,385.974,235.685,371.583,443.449
		c-7.436,107.361-73.271,234.453-5.102,316.012c287.716,344.222,258.059,645.305,145.301,1023.302
		C3255.374,1941.295,171.829,1946.127,171.829,1946.127z"/>
	<path style="fill:#95A6DB;" d="M3257.45,1960.391H142.701c-6.136,0-11.109-4.973-11.109-11.109l0,0
		c0-6.137,4.974-11.111,11.109-11.111H3257.45c6.137,0,11.109,4.975,11.109,11.111l0,0
		C3268.56,1955.418,3263.587,1960.391,3257.45,1960.391z"/>
	<g>
		<g>
			<path style="fill:#201D40;" d="M2908.247,1109.883c-26.529,9.058-113.225,164.898-113.225,164.898l66.811,4.387l71.557-72.518
				L2908.247,1109.883z"/>
			<path d="M2997.57,1880.872c-24.716,32.964-85.408,12.735-83.399,57.323c92.296-0.571,130.654,0,130.654,0
				c-0.121-10.24-1.946-34.549-4.074-44.063L2997.57,1880.872z"/>
			<path d="M3135.662,1881.734c-24.716,32.967-85.408,12.737-83.399,57.324c92.296-0.572,130.654,0,130.654,0
				c-0.121-10.24-1.946-34.547-4.074-44.063L3135.662,1881.734z"/>
			<path style="fill:#201D40;" d="M2944.491,1376.213c0,0-14.816,212.377-8.729,259.352c6.088,46.973,37.828,107.484,35.385,262.857
				c30.087,7.283,73.678,0,73.678,0s6.463-175.685-25.343-254.156c12.934-76.223,54.435-250.805,54.435-250.805L2944.491,1376.213z"
				/>
			<path style="fill:#2C2858;" d="M3036.026,1383.65c0,0,1.375,234.472,16.188,279.462c14.812,44.992,43.599,77.09,70.415,230.15
				c30.92,1.495,75.442,2.133,75.442,2.133s-15.834-196.721-63.991-240.873c-1.63-77.296,18.236-272.354,18.236-272.354
				L3036.026,1383.65z"/>
			<polygon style="fill:#95A6DB;" points="2961.75,1077.824 3001.713,1064.66 3043.741,1066.627 3009.722,1122.629 			"/>
			<path style="fill:#F37A50;" d="M2976.052,1103.922c19.77,9.852,44.574,7.298,62.021-8.633l-7.994-63.098l-58.591,8.646
				L2976.052,1103.922z"/>
			<path style="fill:#95A6DB;" d="M3059.237,1086.105L3059.237,1086.105l-13.199-2.017l-2.297-17.462l-27.392,34.648l-9.133,3.679
				l-9.788-1.095l-35.678-26.034l2.471,17.439l-10.188,4.588l0,0l-37.078,15.057l44.375,214.776l1.372,71.362
				c54.988,5.289,113.192,1.277,167.592-19.332l-18.61-72.566l-7.945-218.018L3059.237,1086.105z"/>
			<polygon style="fill:#E62552;" points="2999.975,1128.527 3006.479,1297.633 3023.455,1313.821 3038.487,1297.041 
				3012.91,1127.517 			"/>
			<polygon style="fill:#E62552;" points="2987.558,1109.123 3002.558,1104.104 3020.018,1105.803 3012.96,1127.846 
				2999.996,1129.091 			"/>
			<g>
				<path style="fill:#2C2858;" d="M2959.23,1085.985l22.682,189.318l19.026,132.928c0,0-36.614,17.9-67.491-0.416l-25.71-297.873
					L2959.23,1085.985z"/>
				<polygon style="fill:#494C7F;" points="2959.938,1083.881 2983.788,1288.408 2935.861,1133.014 				"/>
			</g>
			<g>
				<path style="fill:#2C2858;" d="M3045.085,1068.373l27.852,337.02c0,0,70.41,4.336,96.498-17.46l-27.21-104.428l-40.919-215.598
					L3045.085,1068.373z"/>
				<polygon style="fill:#494C7F;" points="3044.346,1067.792 3062.07,1273.896 3079.638,1108.108 				"/>
			</g>
			<g>
				<g>
					<path style="fill:#F37A50;" d="M3045.22,984.906c-4.507,43.912-36.119,76.643-70.607,73.103
						c-34.49-3.539-58.796-42.005-54.291-85.919c4.507-43.914,36.117-76.643,70.607-73.104
						C3025.418,902.525,3049.725,940.993,3045.22,984.906z"/>
					<path d="M2938.409,988.503c-3.302,1.407-7.121-0.129-8.528-3.432c-1.406-3.303,0.129-7.121,3.432-8.529
						c3.304-1.407,7.12,0.129,8.529,3.433C2943.249,983.277,2941.713,987.096,2938.409,988.503z"/>
					<path d="M2987.788,982.425c-1.346,3.345-5.148,4.965-8.492,3.619c-3.343-1.345-4.965-5.148-3.619-8.492
						c1.346-3.344,5.148-4.964,8.493-3.619C2987.513,975.28,2989.134,979.082,2987.788,982.425z"/>
					<path style="fill:#DE623C;" d="M2953.143,979.989c-3.442,11.054-7.925,24.614-7.925,24.614s6.104,9.103,19.354,5.777
						c-6.2-0.846-12.717-3.155-12.395-11.21C2952.5,991.118,2953.143,979.989,2953.143,979.989z"/>
					<g>
						<path style="fill:#2C2858;" d="M2995.15,970.649c-1.176,0.685-2.709,0.504-3.69-0.523c-0.23-0.238-5.926-5.993-11.746-2.635
							c-1.438,0.829-3.279,0.335-4.109-1.104c-0.829-1.44-0.325-3.286,1.104-4.11c7.949-4.583,15.973,0.412,19.104,3.694
							c1.147,1.202,1.104,3.106-0.099,4.253C2995.538,970.392,2995.349,970.534,2995.15,970.649z"/>
					</g>
					<g>
						<path style="fill:#2C2858;" d="M2923.808,977.432c1.3,0.407,2.755-0.11,3.483-1.33c0.172-0.283,4.445-7.158,10.867-5.177
							c1.588,0.489,3.271-0.401,3.762-1.989c0.489-1.587-0.412-3.275-1.989-3.761c-8.768-2.705-15.481,3.947-17.807,7.843
							c-0.853,1.427-0.387,3.273,1.04,4.125C2923.372,977.267,2923.588,977.363,2923.808,977.432z"/>
					</g>
					<path style="fill:#2C2858;" d="M3038.804,987.399c-3.57-15.624-16.42-9.197-22.579-29.471
						c-6.157-20.273-11.689-35.452-30.462-27.588c-18.773,7.865-24.505,4.319-33.458,1.495
						c-26.915-8.494-31.491,36.245-31.491,36.245s-22.488-33-5.476-54.334c18.861-23.649,26.773-9.756,44.82-27.435
						c18.048-17.678,50.233-15.877,59.295-4.462c9.552,12.035,12.909,21.443,33.368,26.736
						c20.459,5.294,33.204,18.969,20.608,42.426c-12.595,23.457,18.759,31.228-5.767,55.812
						c-9.513,9.535-28.339,15.566-32.314,12.267C3030.029,1014.668,3041.104,997.47,3038.804,987.399z"/>
					<path style="fill:#2C2858;" d="M2920.679,995.841c0,0,5.654,20.933,11.15,26.887c0.5-10.157,15.93-2.622,23.064-3.9
						c17.246-3.092,40.265-18.375,51.142,5.498c22.264-0.052,28.466-48.613,28.466-48.613c16.591,47.982-7.468,85.353-60.956,93.556
						C2938.306,1074.674,2916.414,1031.836,2920.679,995.841z"/>
					<g>
						<path style="fill:#F37A50;" d="M3030.864,977.405c-6.39,8.625-5.848,19.857,1.211,25.086
							c7.059,5.228,17.962,2.474,24.351-6.15c6.391-8.626,5.847-19.857-1.212-25.086S3037.254,968.779,3030.864,977.405z"/>
						<g>
							<path style="fill:#DE623C;" d="M3041.55,997.757c-0.347-0.067-0.684-0.213-0.983-0.442
								c-4.298-3.294-5.896-7.896-4.283-12.311c1.653-4.519,6.191-7.641,10.792-7.424c1.296,0.062,2.296,1.16,2.233,2.454
								c-0.062,1.295-1.159,2.295-2.454,2.234c-2.521-0.119-5.229,1.792-6.163,4.349c-0.899,2.457,0.071,4.934,2.732,6.973
								c1.027,0.789,1.222,2.262,0.434,3.291C3043.299,997.609,3042.394,997.92,3041.55,997.757z"/>
						</g>
					</g>
					<g>
						<path style="fill:#DE623C;" d="M2966.799,1034.201c-1.401,0.469-2.835,0.804-4.303,0.998
							c-10.833,1.45-19.392-5.176-19.751-5.457c-1.111-0.873-1.303-2.482-0.428-3.593c0.872-1.108,2.478-1.3,3.587-0.431l0,0
							c0.071,0.055,7.296,5.588,15.963,4.403c5.647-0.771,10.778-4.224,15.251-10.261c0.842-1.135,2.444-1.373,3.579-0.531
							c1.136,0.843,1.374,2.443,0.532,3.578C2976.995,1028.624,2972.154,1032.408,2966.799,1034.201z"/>
					</g>
				</g>
			</g>
			<polygon style="fill:#FFFFFF;" points="3002.558,1104.104 3035.221,1127.174 3052.677,1078.233 3043.741,1066.627 			"/>
			<polygon style="fill:#FFFFFF;" points="3002.558,1104.104 2982.458,1130.908 2956.255,1091.402 2961.75,1077.824 			"/>
		</g>
		<g id="с_1_">
			<path id="с_14_" style="fill:#768FDB;" d="M2585.392,1943.393h-0.961c-7.771,0-14.072-6.3-14.072-14.072v-240.65h29.105v240.65
				C2599.464,1937.093,2593.163,1943.393,2585.392,1943.393z"/>
			<path id="с_13_" style="fill:#768FDB;" d="M2687.509,1943.393h-0.96c-7.772,0-14.073-6.3-14.073-14.072v-240.65h29.105v240.65
				C2701.581,1937.093,2695.28,1943.393,2687.509,1943.393z"/>
			<path id="с_12_" style="fill:#768FDB;" d="M2835.575,1929.785c0,7.516-6.516,13.607-14.553,13.607l0,0
				c-8.036,0-14.552-6.092-14.552-13.607V1688.67h29.104V1929.785z"/>
			<path id="с_11_" style="fill:#768FDB;" d="M2923.621,1943.393h-0.962c-7.771,0-14.071-6.3-14.071-14.072v-240.65h29.104v240.65
				C2937.692,1937.093,2931.392,1943.393,2923.621,1943.393z"/>
			<path id="с_10_" style="fill:#95A6DB;" d="M2762.121,1306.005v306.835c0,3.492-2.832,6.322-6.322,6.322h-190.244
				c-19.195,0-34.755,15.56-34.755,34.754l0,0c0,19.193,15.56,34.754,34.755,34.754h196.566h34.754
				c19.193,0,34.754-15.561,34.754-34.754v-34.754v-313.157c0-19.195-15.561-34.755-34.754-34.755l0,0
				C2777.68,1271.25,2762.121,1286.81,2762.121,1306.005z"/>
			<rect id="с_9_" x="2796.875" y="1271.25" style="fill:#95A6DB;" width="150.413" height="353.547"/>
			<path id="с_4_" style="fill:#768FDB;" d="M2912.534,1306.005v306.835c0,3.492-2.83,6.322-6.321,6.322h-190.245
				c-19.193,0-34.754,15.56-34.754,34.754l0,0c0,19.193,15.561,34.754,34.754,34.754h196.566h34.754
				c19.195,0,34.754-15.561,34.754-34.754v-34.754v-313.157c0-19.195-15.559-34.755-34.754-34.755l0,0
				C2928.095,1271.25,2912.534,1286.81,2912.534,1306.005z"/>
		</g>
		<g id="c_8_">
			<path style="fill:#C4204A;" d="M2675.227,1258.291c-38.334,11.644-57.414,92.348-73.735,176.824
				c-22.053,28.945-45.703,44.844-80.27,78.974c23.424,5.305,48.211-0.91,48.211-0.91s63.682,0.545,91.309-59.664
				c6.322-13.779,8.479-41.506,12.061-53.828C2674.375,1361.058,2675.227,1258.291,2675.227,1258.291z"/>
			<path style="fill:#F37A50;" d="M2450.979,1901.779l-34.528,8.748l-14.104-30.756c1.468-1.084,3.731-21.527,5.116-37.088
				l55.732,7.687C2460.462,1866.072,2455.857,1886.605,2450.979,1901.779z"/>
			<g>
				<g>
					<path style="fill:#201D40;" d="M2390.046,1919.91c0,0-11.938-20.074-27.067-21.338c0,0-28.55,1.637-38.565,13.643
						c-3.145,3.771-1.935,11.816-0.691,16.969c0.777,3.217,3.503,6.709,11.941,9.363c12.463,3.92,29.273,6.323,60.241-1.705
						c37.149-9.629,43.079-5.664,56.809-10.088c14.229-4.584,9.655-21.977,5.774-38.918
						C2458.487,1887.836,2448.133,1908.568,2390.046,1919.91z"/>
				</g>
				<g>
					<g>
						<path style="fill:#2C2858;" d="M2401.412,1876.764c0,0-16.581,10.043-38.261,15.021c-12.131,2.783-44.463,9.055-39.256,30.611
							c0.776,3.217,3.504,6.707,11.942,9.362c12.462,3.921,29.271,6.323,60.24-1.704c37.148-9.631,43.079-5.664,56.809-10.088
							c14.229-4.586,7.663-24.327,3.78-41.267l0,0c-0.351,4.299-2.342,15.582-28.152,25.689
							C2420.809,1907.406,2427.104,1873.426,2401.412,1876.764z"/>
					</g>
				</g>
				<g>
					<path style="fill:#494C7F;" d="M2406.238,1902.736c-1.237-0.084-2.334-0.951-2.649-2.22
						c-2.622-10.544-13.519-11.288-13.98-11.319c-1.611-0.093-2.851-1.473-2.766-3.084c0.086-1.613,1.453-2.851,3.065-2.772
						c5.416,0.255,16.422,3.901,19.372,15.76c0.391,1.571-0.566,3.163-2.139,3.555
						C2406.839,1902.729,2406.534,1902.755,2406.238,1902.736z"/>
				</g>
				<g>
					<path style="fill:#494C7F;" d="M2392.622,1908.191c-1.235-0.082-2.334-0.95-2.647-2.219
						c-2.624-10.543-13.521-11.287-13.981-11.317c-1.61-0.093-2.853-1.474-2.765-3.086c0.085-1.612,1.452-2.851,3.063-2.773
						c5.416,0.256,16.424,3.902,19.372,15.762c0.392,1.57-0.565,3.162-2.138,3.553
						C2393.225,1908.188,2392.92,1908.213,2392.622,1908.191z"/>
				</g>
			</g>
			<path style="fill:#F37A50;" d="M2585.857,1914.785l-33.827,11.155l-16.231-29.687c1.388-1.186,6.247-22.779,6.534-38.398
				l52.093,4.787C2592.805,1878.498,2589.657,1899.306,2585.857,1914.785z"/>
			<path style="fill:#201D40;" d="M2642.001,1529.713c-77.122,14.087-186.658,64.045-197.463,75.408
				c-22.317,23.475-33.246,104.213-43.771,248.015l67.496,4.506c24.914-112.339,48.354-161.317,52.18-206.94
				c0,0,59.146,4.092,148.148-30.252c43.873-16.932,89.594-36.686,76.435-76.322
				C2734.541,1512.549,2715.538,1516.281,2642.001,1529.713z"/>
			<path style="fill:#2C2858;" d="M2728.262,1536.43c-64.077,6.621-149.544,79.942-160.349,91.305
				c-22.317,23.475-25.129,103.642-35.653,247.441l67.173,6.196c10.876-74.502,42.664-159.858,42.572-214.56
				c0,0,60.128-13.033,153.199-33.967c50.913-11.451,66.191-19.337,75.93-52.584c3.313-11.313,7.804-37.52,2.724-43.367
				C2851.376,1511.02,2788.913,1530.164,2728.262,1536.43z"/>
			<g>
				<g>
					<path style="fill:#201D40;" d="M2526.351,1937.157c0,0-13.321-19.185-28.502-19.38c0,0-28.362,3.641-37.507,16.32
						c-2.874,3.984-1.103,11.926,0.503,16.978c1.001,3.153,3.965,6.444,12.569,8.499c12.71,3.033,29.646,4.248,59.973-5.939
						c36.379-12.22,42.572-8.682,55.958-14.06c13.872-5.574,8.086-22.604,3.021-39.229
						C2592.366,1900.348,2583.496,1921.757,2526.351,1937.157z"/>
				</g>
				<g>
					<g>
						<path style="fill:#2C2858;" d="M2534.654,1893.318c0,0-15.833,11.185-37.109,17.676
							c-11.905,3.631-43.716,12.161-37.004,33.297c1,3.154,3.967,6.445,12.57,8.501c12.709,3.032,29.644,4.248,59.97-5.94
							c36.382-12.22,42.574-8.682,55.958-14.059c13.873-5.576,5.933-24.807,0.869-41.432l0,0
							c-0.047,4.313-1.238,15.708-26.274,27.605C2556.158,1922.52,2560.049,1888.18,2534.654,1893.318z"/>
					</g>
				</g>
				<g>
					<path style="fill:#494C7F;" d="M2546.967,1920.01c-1.237-0.082-2.334-0.951-2.649-2.218
						c-2.622-10.544-13.519-11.288-13.979-11.318c-1.612-0.095-2.852-1.474-2.767-3.086c0.087-1.612,1.454-2.853,3.065-2.772
						c5.415,0.257,16.422,3.901,19.372,15.761c0.392,1.571-0.566,3.162-2.138,3.554
						C2547.567,1920.004,2547.263,1920.029,2546.967,1920.01z"/>
				</g>
				<g>
					<path style="fill:#494C7F;" d="M2533.351,1925.467c-1.237-0.082-2.334-0.95-2.649-2.219
						c-2.622-10.543-13.519-11.287-13.98-11.318c-1.609-0.094-2.851-1.473-2.765-3.086c0.086-1.611,1.452-2.852,3.064-2.771
						c5.416,0.256,16.422,3.902,19.372,15.76c0.392,1.572-0.566,3.164-2.138,3.555
						C2533.951,1925.461,2533.647,1925.486,2533.351,1925.467z"/>
				</g>
			</g>
			<g>
				<polygon id="v-2_3_" style="fill:#F37A50;" points="2770.571,1193.701 2770.542,1193.701 2744.976,1193.795 2739.188,1254.178 
					2769.03,1269.936 2800.854,1254.355 2795.712,1193.795 				"/>
				<g>
					<g>
						<path style="fill:#2C2858;" d="M2773.008,1185.338c22.497,6.319,39.073-21.078,39.073-21.078
							c14.406-0.117,14.231-14.472,14.231-14.472c6.982-0.999,16.979-6.759,16.116-19.919c-0.732-11.143-11.366-12.293-10.75-25.111
							c0.496-10.286,11.644-33.94-20.341-40.919c0,0,2.151-18.927-16.538-26.458c-22.912-9.234-31.031,4.133-41.854,5.065
							c-12.088,1.039-35.441-13.59-42.928,12.848c0,0-16.68-2.217-26.216,8.682c-8.882,10.154-6.967,25.209-3.011,31.254
							c0,0-14.037,2.451-19.077,14.598c-3.38,8.143-1.794,19.598,5.804,26.227c4.836,4.219,9.88,5.33,9.88,5.33
							c5.306,1.74,3.362,16.368,7.717,19.938c6.989,5.726,14.85,10.226,22.956,14.084L2773.008,1185.338z"/>
						<path style="fill:#F37A50;" d="M2814.921,1149.703c-1.471,42.324-34.634,78.806-67.876,77.648
							c-33.243-1.156-53.975-39.51-52.503-81.835c1.471-42.325,29.612-75.699,62.854-74.542
							C2790.638,1072.129,2816.394,1107.377,2814.921,1149.703z"/>
						<path d="M2713.892,1160.91c-0.828,3.086-4,4.918-7.086,4.09c-3.085-0.826-4.916-3.998-4.089-7.085
							c0.828-3.085,4-4.917,7.085-4.089C2712.888,1154.652,2714.718,1157.824,2713.892,1160.91z"/>
						<path d="M2761.709,1159.145c-0.896,3.34-4.329,5.322-7.668,4.427c-3.341-0.896-5.323-4.329-4.429-7.67
							c0.896-3.341,4.329-5.323,7.671-4.427C2760.622,1152.369,2762.604,1155.803,2761.709,1159.145z"/>
						<path style="fill:#DE623C;" d="M2732.377,1160.693c-5.269,8.451-11.945,18.764-11.945,18.764s3.103,8.904,14.853,9.014
							c-4.977-2.049-9.897-5.391-7.88-12.023C2729.424,1169.814,2732.377,1160.693,2732.377,1160.693z"/>
						<g>
							<path style="fill:#2C2858;" d="M2767.691,1151.056c0.209-0.075,0.412-0.177,0.604-0.302c1.334-0.875,1.708-2.664,0.833-3.997
								c-2.386-3.64-9.09-9.747-17.386-6.802c-1.505,0.559-2.287,2.184-1.754,3.687c0.533,1.501,2.185,2.286,3.686,1.753
								c6.143-2.18,10.583,4.46,10.625,4.527C2765.049,1151.061,2766.463,1151.498,2767.691,1151.056z"/>
						</g>
						<g>
							<path style="fill:#2C2858;" d="M2712.318,1148.1c0.39-0.141,0.746-0.383,1.03-0.723c0.851-1.021,0.713-2.539-0.308-3.389
								c-0.161-0.133-3.975-3.258-8.769-2.469c-3.273,0.538-6.085,2.685-8.353,6.386c-0.695,1.132-0.341,2.614,0.793,3.308
								c1.132,0.695,2.612,0.34,3.306-0.793c1.507-2.455,3.201-3.854,5.033-4.154c2.606-0.428,4.887,1.4,4.908,1.418
								C2710.641,1148.25,2711.542,1148.379,2712.318,1148.1z"/>
						</g>
						<path style="fill:#2C2858;" d="M2684.075,1103.293l71.116-46.651l73.656,52.699l-18.522,56.059
							c1.975-26.891-15.604-20.77-22.85-29.809c-7.343-9.164-9.203-22.029-30.909-14.176c0,0-14.6-13.666-25.337,0.879
							c-8.303,11.246-16.729,7.58-25.567,6.906c-10.43-0.797-9.482,9.594-15.736,8.32L2684.075,1103.293z"/>
						<g>
							<path style="fill:#F37A50;" d="M2805.563,1146.373c-6.517,7.531-6.8,17.961-0.637,23.291
								c6.165,5.332,16.442,3.549,22.958-3.984c6.514-7.531,6.799-17.958,0.635-23.291
								C2822.354,1137.058,2812.078,1138.84,2805.563,1146.373z"/>
							<g>
								<path style="fill:#DE623C;" d="M2814.021,1165.949c-0.316-0.086-0.616-0.244-0.878-0.479
									c-3.743-3.348-4.903-7.717-3.101-11.688c1.846-4.064,6.264-6.637,10.504-6.113c1.195,0.147,2.042,1.234,1.896,2.428
									c-0.146,1.193-1.235,2.041-2.429,1.895c-2.321-0.287-4.961,1.291-6.005,3.592c-1.003,2.209-0.279,4.568,2.038,6.642
									c0.896,0.802,0.973,2.179,0.172,3.075C2815.649,1165.936,2814.792,1166.16,2814.021,1165.949z"/>
							</g>
						</g>
						<path style="fill:#FFFFFF;" d="M2722.287,1204.561c-1.152-1.234-0.286-3.242,1.404-3.232c4.292,0.025,11.375-0.08,18.06-0.84
							c6.687-0.758,13.611-2.242,17.791-3.229c1.643-0.388,2.938,1.372,2.092,2.834c-2.604,4.495-8.242,11.508-18.488,12.671
							C2732.897,1213.928,2725.831,1208.358,2722.287,1204.561z"/>
					</g>
				</g>
			</g>
			<g id="v_3_">
				<path id="v-25_3_" style="fill:#FFD0B7;" d="M2824.258,1269.256c-18.566-6.262-38.1-9.174-57.686-8.599
					c-66.336,0-76.493,16.759-76.493,16.37l49.229,135.186l27.264,13.454l29.84-8.841
					C2796.412,1416.826,2835.096,1273.288,2824.258,1269.256z"/>
				<path style="fill:#E62552;" d="M2873.846,1538.061c0,0-53.5,5.518-103.638,5.852c-50.136-0.369-103.637-10.096-103.637-10.096
					s6.738-92.074,6.051-127.433c-0.976-40.601,2.604-94.437,2.604-148.095c0,0,35.562-5.725,55.622-8.196
					c3.261-0.405,6.108-0.716,8.336-0.912c0,0,11.43,23.979,61.233,0c2.616-0.261,5.855-0.245,9.477-0.036
					c20.923,1.25,54.619,9.144,54.619,9.144c0,53.514,2.161,105.955,1.438,146.563
					C2868.177,1441.07,2873.846,1538.061,2873.846,1538.061z"/>
			</g>
			<g id="c_15_">
				<path style="fill:#F37A50;" d="M2741.945,1374.283l-12.14-7.033c0,0-3.359-17.217-22.852-17.632
					c2.233,7.224,5.447,17.632,5.447,17.632s-9.594,7.447-32.347-5.3c-22.242-4.997-12.742,11.22-20.113,12.384
					c-10.879,1.717,7.93,23.094,30.138,26.365c28.738,4.232,32.149-1.65,32.149-1.65l16.26,5.682L2741.945,1374.283z"/>
				<path id="c_16_" style="fill:#C4204A;" d="M2854.263,1392.675c-40.57-2.835-109.775-22.872-109.775-22.872
					c-11.075,16.986-8.013,39.549-8.013,39.549c63.002,55.237,157.821,73.092,186.913,59.797
					c26.562-12.137,7.812-173.82-58.876-210.857l-2.312,0.218C2839.338,1297.191,2854.263,1392.675,2854.263,1392.675z"/>
			</g>
			<path style="fill:#C4204A;" d="M2809.894,1249.145v0.008c-3.463,5.783-8.364,10.158-15.277,13.637
				c-10.945,5.521-25.82,7.863-34.979,7.146c-7.253-0.57-15.295-3.527-20.449-7.612c-5.475-4.347-7.854-9.882-8.34-12.23
				c3.261-0.405,6.61-0.911,8.836-1.106c0,0,10.93,24.174,60.733,0.194C2803.033,1248.92,2806.272,1248.936,2809.894,1249.145z"/>
		</g>
		<g>
			<path style="fill:#4661B3;" d="M3103.788,1543.912h-854.967c-10.284,0-18.621-8.338-18.621-18.623l0,0
				c0-10.284,8.337-18.623,18.621-18.623h854.967c10.284,0,18.622,8.339,18.622,18.623l0,0
				C3122.41,1535.574,3114.072,1543.912,3103.788,1543.912z"/>
			<path style="fill:#4661B3;" d="M2270.938,1943.393h-0.584c-8.805,0-15.944-7.139-15.944-15.943v-378.668
				c0-8.807,7.14-15.945,15.944-15.945h0.584c8.805,0,15.943,7.139,15.943,15.945v378.668
				C2286.881,1936.254,2279.742,1943.393,2270.938,1943.393z"/>
			<path style="fill:#4661B3;" d="M3084.287,1943.393h-0.583c-8.807,0-15.945-7.139-15.945-15.943v-378.668
				c0-8.807,7.139-15.945,15.945-15.945h0.583c8.806,0,15.945,7.139,15.945,15.945v378.668
				C3100.232,1936.254,3093.093,1943.393,3084.287,1943.393z"/>
		</g>
		<g>
			<path style="fill:#0E6A41;" d="M2645.746,1507.002H2431.3l-42.329-134.588c-1.956-6.217,2.688-12.542,9.203-12.542h194.218
				c4.213,0,7.938,2.733,9.204,6.753L2645.746,1507.002z"/>
			<path style="fill:#3F964F;" d="M2629.479,1507.002h-214.446l-42.329-134.588c-1.955-6.217,2.686-12.542,9.204-12.542h194.217
				c4.214,0,7.939,2.733,9.204,6.753L2629.479,1507.002z"/>
			<path style="fill:#55AB65;" d="M2503.229,1436.089c2.362,8.313-1.843,16.792-9.392,18.937
				c-7.551,2.146-15.586-2.855-17.948-11.17c-2.36-8.313,1.844-16.791,9.394-18.935
				C2492.833,1422.774,2500.867,1427.775,2503.229,1436.089z"/>
			<path style="fill:#0E6A41;" d="M2767.575,1492.95h-138.096v13.716h151.813l0,0
				C2781.292,1499.091,2775.15,1492.95,2767.575,1492.95z"/>
		</g>
		<g>
			<path style="fill:#95A6DB;" d="M2378.129,1506.666h-74.971v-83.558c0-4.966,4.024-8.993,8.992-8.993h56.984
				c4.966,0,8.994,4.027,8.994,8.993V1506.666z"/>
			<g>
				<path style="fill:#95A6DB;" d="M2308.83,1497.936h-16.885c-8.684,0-15.749-7.063-15.749-15.746v-30.438
					c0-8.684,7.065-15.746,15.749-15.746h13.956c3.861,0,6.992,3.129,6.992,6.99c0,3.861-3.131,6.992-6.992,6.992h-13.956
					c-0.974,0-1.766,0.791-1.766,1.764v30.438c0,0.973,0.792,1.764,1.766,1.764h16.885c3.861,0,6.991,3.13,6.991,6.992
					C2315.821,1494.807,2312.691,1497.936,2308.83,1497.936z"/>
			</g>
		</g>
		<g>
			<path style="fill:#F37A50;" d="M2914.891,1367.885c9.589-4.582,20.307-7.279,23.577-20.975c0,0,25.957-6.898,53.145-12.945
				c0,0-33.104-30.34-33.13-30.33c-10.758,3.641-30.616,17.055-42.77,17.359c-3.157,0.081-6.325-0.006-9.495,0.035
				c-7.722-0.063-15.765-0.972-24.041,5.126c-31.974,23.554-44.481,19.556-45.777,22.276c-1.073,4.242,7.53,12.344,23.821,4.189
				c15.763-7.891,24.134-8.016,24.134-8.016s-0.267,13.761,5.2,17.707C2892.038,1364.104,2903.681,1373.242,2914.891,1367.885z"/>
			<path style="fill:#201D40;" d="M2946.243,1302.509c0,0,84.857-40.923,149.362-54.167c-8.917-32.281,5.632-181.434,5.632-181.434
				s43.567,10.688,65.204,91.477c21.635,80.791-27.985,163.01-27.985,163.01s-133.782,37.182-181.627,23.578
				C2949.325,1342.838,2946.243,1302.509,2946.243,1302.509z"/>
		</g>
	</g>
	<g>
		<g>
			<path d="M297.095,1878.258c-22.658,30.223-79.345,16.861-77.503,57.738c84.614-0.525,121.471,0.23,121.471,0.23
				c-0.111-9.389-2.43-44.528-4.381-53.252L297.095,1878.258z"/>
		</g>
		<g>
			<path d="M443.455,1878.258c22.657,30.223,79.344,16.861,77.502,57.738c-84.614-0.525-121.471,0.23-121.471,0.23
				c0.111-9.389,2.43-44.528,4.382-53.252L443.455,1878.258z"/>
		</g>
		<g>
			<path style="fill:#201D40;" d="M246.718,1053.701c0,0-68.758,37.308-112.611,71.815l-23.723,71.891
				c45.769-5.443,159.107-55.044,159.107-55.044L246.718,1053.701z"/>
			<path style="fill:#F37A50;" d="M96.765,976.092c2.125,10.981,2.029,22.61,15.109,29.574c0,0-5.119,35.365-6.17,64.658
				c0,0,36.12-34.196,36.117-34.227c-0.855-11.922-0.434-34.277,2.48-46.736c0.756-3.233,1.684-6.439,2.482-9.677
				c2.111-7.847,5.171-15.798,1.156-25.843c-15.511-38.809-8.122-50.487-10.549-52.528c-4.037-2.217-14.568,4.397-10.583,23.149
				c3.856,18.146,1.764,26.703,1.764,26.703s-13.944-3.919-19.412,0.603C106.677,953.821,94.281,963.256,96.765,976.092z"/>
			<path style="fill:#201D40;" d="M101.563,1012.096l45.548,6.807l22.182,128.357l-58.909,50.146
				C97.637,1172.26,86.657,1068.014,101.563,1012.096z"/>
		</g>
		<path style="fill:#201D40;" d="M456.157,1330.485c-58.176,7.065-117.083,7.288-176.754,0.389l-13.508,291.513
			c0,0,7.546,192.846,17.727,260.515l64.038-0.142c-4.185-78.694,7.972-260.57,7.972-260.57L368.4,1455.9l12.831,166.233
			c0,0,12.608,181.822,8.771,260.535l66.734-0.147c9.884-67.714,14.1-260.585,14.1-260.585L456.157,1330.485z"/>
		<path style="fill:#201D40;" d="M477.267,1054.727c0,0,39.234,79.158,63.037,129.629l-21.75,69.977
			c-38.509-25.326-101.29-130.475-101.29-130.475L477.267,1054.727z"/>
		<polygon style="fill:#95A6DB;" points="399.678,1035.757 319.977,1039.295 311.939,1117.278 320.626,1339.811 404.676,1338.762 
			426.645,1089.649 		"/>
		<path style="fill:#2C2858;" d="M312.236,915.658c11.1-12.756,19.854-0.38,35.677-16.173c15.823-15.794,28.526-27.16,42.074-10.497
			c13.548,16.663,20.522,19.003,30.38,18.049c9.858-0.954,9.803,39.595,9.803,39.595s38.797-9.7,33.593-38.017
			c-5.77-31.39-20.047-22.406-28.034-47.837c-7.987-25.432-38.824-39.783-52.936-33.675c-14.878,6.439-22.687,13.519-44.354,8.257
			c-21.667-5.263-40.332,1.114-40.295,29.206c0.037,28.093-32.999,19.711-22.425,54.791c4.102,13.607,15.601,26.132,20.94,25.041
			C303.809,942.935,305.081,923.881,312.236,915.658z"/>
		<rect x="325.115" y="1329.531" style="fill:#494C7F;" width="78.27" height="23.346"/>
		<polygon style="fill:#DE623C;" points="333.024,1055.381 360.754,1077.318 388.899,1055.381 392.627,1001.785 329.298,1001.785 		
			"/>
		<g>
			<path style="fill:#2C2858;" d="M246.532,1053.845l1.443,348.493c27.135,22.274,80.322,28.359,80.322,28.359l-9.671-386.201
				L246.532,1053.845z"/>
			<path style="fill:#2C2858;" d="M477.368,1053.845l-1.444,348.493c-27.135,22.274-80.321,28.359-80.321,28.359l9.67-386.201
				L477.368,1053.845z"/>
		</g>
		<polygon style="fill:#494C7F;" points="279.671,1090.335 325.48,1287.984 318.526,1041.005 		"/>
		<polygon style="fill:#494C7F;" points="446.641,1076.649 399.678,1290.246 405.272,1044.496 		"/>
		<path style="fill:#F37A50;" d="M367.158,861.971c-81.733-1.925-63.074,108.169-57.108,125.468
			c3.252,9.431,23.987,45.61,57.332,46.122c33.345-0.512,53.631-36.69,56.885-46.122
			C430.232,970.14,451.719,863.259,367.158,861.971z"/>
		<g>
			<path style="fill:#2C2858;" d="M357.365,934.827c0.826-0.442,1.49-1.19,1.807-2.15c0.651-1.981-0.426-4.115-2.406-4.767
				c-0.597-0.195-14.751-4.698-27.625,4.542c-1.694,1.217-2.081,3.576-0.865,5.271c1.216,1.693,3.574,2.081,5.27,0.865
				c9.789-7.029,20.751-3.54,20.86-3.503C355.426,935.419,356.487,935.295,357.365,934.827z"/>
		</g>
		<g>
			<path style="fill:#2C2858;" d="M392.884,933.761c-0.825-0.442-1.49-1.191-1.806-2.15c-0.652-1.981,0.426-4.115,2.406-4.766
				c0.597-0.196,14.751-4.699,27.625,4.543c1.694,1.216,2.081,3.575,0.865,5.269c-1.216,1.693-3.574,2.083-5.27,0.866
				c-9.789-7.029-20.751-3.541-20.86-3.505C394.824,934.354,393.763,934.231,392.884,933.761z"/>
		</g>
		<path d="M409.444,947.595c0,3.68-2.984,6.665-6.665,6.665c-3.682,0-6.665-2.985-6.665-6.665c0-3.682,2.983-6.666,6.665-6.666
			C406.46,940.93,409.444,943.914,409.444,947.595z"/>
		<path d="M352.279,947.595c0,3.68-2.983,6.665-6.665,6.665c-3.681,0-6.665-2.985-6.665-6.665c0-3.682,2.984-6.666,6.665-6.666
			C349.296,940.93,352.279,943.914,352.279,947.595z"/>
		<path style="fill:#DE623C;" d="M379.55,953.968c5.359,8.512,12.151,18.898,12.151,18.898s-3.092,9.007-14.96,9.174
			c5.017-2.094,9.974-5.491,7.903-12.181C382.575,963.168,379.55,953.968,379.55,953.968z"/>
		<g>
			<polygon style="fill:#E62552;" points="368.031,1097.817 382.008,1285.533 361.046,1310.277 340.085,1285.533 354.379,1098.3 			
				"/>
			<polygon style="fill:#E62552;" points="375.695,1077.646 361.754,1073.985 347.499,1078.274 354.366,1098.65 368.076,1098.409 
							"/>
			<path style="fill:#FFFFFF;" d="M361.046,1074.022c0,0-9.23,13.523-25.621,21.179l-27.484-41.713l12.036-14.193L361.046,1074.022z
				"/>
			<path style="fill:#FFFFFF;" d="M361.046,1074.022c0,0,13.364,15.589,26.349,20.267l24.889-45.031l-11.722-13.501
				L361.046,1074.022z"/>
		</g>
		<path style="fill:#201D40;" d="M642.435,1170.17l-10.898-41.779l-106.361,46.508l-6.62,79.434
			C546.617,1251.629,603.196,1212.709,642.435,1170.17z"/>
		<path style="fill:#FFFFFF;" d="M395.423,996.807c1.09-1.796,0.107-4.415-1.589-4.215c-4.313,0.507-11.436,1.145-18.196,0.854
			c-6.761-0.289-13.803-1.534-18.058-2.407c-1.673-0.343-2.875,2.18-1.943,4.063c2.865,5.792,8.921,14.656,19.282,15.099
			C385.281,1010.646,392.073,1002.332,395.423,996.807z"/>
		<path style="fill:#2C2858;" d="M302.516,935.488c9.231,3.076,11.853-62.99,47.759-39.051c25.278,16.852,71.87,21.065,62.45-1.788
			c7.552,5.595,16.111,14.427,16.111,14.427l-13.315-44.077c0,0-68.529-21.538-92.865,0.28
			C298.32,887.096,302.516,935.488,302.516,935.488z"/>
		<path style="fill:#F37A50;" d="M319.561,942.955c5.434,10.661,2.268,23.161-7.072,27.923c-9.34,4.76-21.317-0.021-26.751-10.682
			c-5.434-10.662-2.267-23.162,7.072-27.923C302.15,927.511,314.128,932.294,319.561,942.955z"/>
		<g>
			<path style="fill:#DE623C;" d="M305.419,965.313c-0.237,0-0.479-0.035-0.717-0.107c-1.299-0.395-2.031-1.769-1.636-3.068
				c1.986-6.527,1.81-11.46-0.508-14.264c-3.128-3.782-9.446-3.152-9.51-3.146c-1.348,0.144-2.561-0.827-2.709-2.174
				c-0.149-1.346,0.814-2.559,2.161-2.712c0.363-0.042,8.977-0.95,13.82,4.867c3.493,4.195,3.98,10.54,1.448,18.86
				C307.447,964.63,306.473,965.313,305.419,965.313z"/>
		</g>
		<g>
			<g>
				<g>
					<polygon style="fill:#E62552;" points="716.509,1102.41 710.813,1125.188 702.825,1157.115 696.759,1181.358 648.9,1175.764 
						648.588,1150.775 648.18,1117.866 647.891,1094.39 					"/>
				</g>
				<polygon style="fill:#C4204A;" points="641.013,1093.587 723.386,1103.216 723.036,1094.428 643.381,1085.117 				"/>
				<polygon style="fill:#C4204A;" points="716.744,1093.693 649.673,1085.853 652.013,1077.621 716.366,1085.143 				"/>
				<polygon style="fill:#C4204A;" points="696.759,1181.359 694.634,1189.858 649.009,1184.525 648.9,1175.766 				"/>
				<polygon style="fill:#C4204A;" points="710.813,1125.188 702.825,1157.115 648.588,1150.775 648.18,1117.866 				"/>
			</g>
			<path id="c_1_" style="fill:#F37A50;" d="M694.721,1152.681c0.506-0.364,1.062-0.604,1.635-0.79
				c-0.063-0.084-0.131-0.162-0.193-0.248c-3.662-5.077-3.676-11.322-0.033-13.947c0.599-0.432,1.262-0.727,1.963-0.914
				c-1.125-3.823-0.398-7.543,2.203-9.418c1.033-0.744,2.251-1.105,3.547-1.143c-1.371-3.744-0.558-7.766,2.355-9.864
				c3.644-2.626,9.132-1.239,12.257,3.095c3.126,4.334,2.707,9.977-0.938,12.602c-0.922,0.665-1.964,1.07-3.054,1.237
				c2.681,4.755,2.388,10.087-0.907,12.462c-0.598,0.43-1.262,0.726-1.962,0.914c1.125,3.822,0.398,7.543-2.203,9.418
				c-0.959,0.691-2.079,1.053-3.271,1.133c1.366,3.27,0.723,6.876-1.839,8.721c-3.078,2.217-7.713,1.047-10.352-2.614
				C691.289,1159.663,691.643,1154.899,694.721,1152.681z"/>
			<path style="fill:#F37A50;" d="M648.977,1136.836c3.537-1.401,8.024-5.785,10.37-13.896c2.346-8.11,21.36-13.358,14.52-17.721
				c-6.84-4.362-27.772-0.714-35.731,17.511c-4.485,4.541-6.6,5.66-6.6,5.66l9.715,37.578l7.544-1.664L648.977,1136.836z"/>
		</g>
	</g>
	<g>
		<g>
			<path d="M1008.58,901.186c-49.736-14.034-155.962,30.923-127.053,211.824c28.909,180.901,165.865,151.061,165.865,151.061
				s59.691-18.763,65.05-133.69C1117.8,1015.453,1092.223,924.788,1008.58,901.186z"/>
			<path style="fill:#C4204A;" d="M967.119,1120.902c0,0-10.041,103.145-95.568,156.139c-15.016-4.096-29.344-39.125-29.344-39.125
				l46.669-113.016c0,0,16.729-24.415,46.25-23.994C960.839,1101.271,967.119,1120.902,967.119,1120.902z"/>
			<g>
				<g>
					<g>
						<path style="fill:#F37A50;" d="M965.383,1065.492l37.072-5.553l-2.953,34.412c0,0-18.775,33.832-36.589,28.005
							c-17.813-5.827-9.126-20.772-9.126-20.772L965.383,1065.492z"/>
					</g>
				</g>
			</g>
			<g>
				<path style="fill:#F37A50;" d="M1032.113,1009.662c-6.024,40.656-36.795,69.779-68.725,65.047
					c-31.932-4.73-52.934-41.525-46.909-82.181c6.025-40.657,36.795-69.78,68.727-65.048
					C1017.136,932.213,1038.138,969.006,1032.113,1009.662z"/>
				<g>
					<path d="M991.17,998.382c-0.444-0.131-0.849-0.409-1.134-0.818c-4.139-5.943-12.465-5.776-12.549-5.773
						c-1.164,0.033-2.139-0.883-2.176-2.046c-0.036-1.165,0.873-2.138,2.037-2.179c0.435-0.014,10.686-0.271,16.155,7.582
						c0.667,0.958,0.432,2.275-0.525,2.942C992.43,998.473,991.764,998.558,991.17,998.382z"/>
				</g>
				<g>
					<path d="M919.953,997.202c-0.211-0.083-0.412-0.201-0.595-0.356c-0.89-0.754-0.999-2.089-0.244-2.979
						c5.862-6.91,14.009-4.976,14.353-4.891c1.13,0.282,1.822,1.429,1.54,2.562c-0.281,1.129-1.423,1.818-2.552,1.542
						c-0.268-0.063-5.995-1.339-10.118,3.522C921.737,997.31,920.771,997.523,919.953,997.202z"/>
				</g>
				<path style="fill:#DE623C;" d="M949.437,1014.412c-2.658,3.264-4.949,6.59-7.584,8.594c-0.889,0.676-1.08,1.954-0.448,2.875
					c2.606,3.799,9.479,6.51,13.666,7.869c0.61,0.199,1.026-0.615,0.508-0.995c-4.389-3.214-6.37-5.69-7.232-7.069
					c-0.429-0.686-0.493-1.531-0.193-2.281c0.69-1.725,2.057-5.236,2.936-8.121C951.392,1014.286,950.094,1013.604,949.437,1014.412
					z"/>
				<path style="fill:#FFFFFF;" d="M976.194,1045.121c0.811-1.244-0.243-2.851-1.704-2.588c-3.716,0.672-9.866,1.651-15.772,2.005
					c-5.906,0.354-12.13,0.115-15.899-0.106c-1.482-0.088-2.337,1.633-1.383,2.771c2.935,3.501,8.879,8.722,17.932,8.181
					C968.42,1054.84,973.698,1048.945,976.194,1045.121z"/>
				<path d="M1045.109,1005.94c-37.767-1.709-87.436-36.566-93.44-55.705c5.154-24.08,24.141-37.686,46.818-28.741
					C1021.165,930.44,1058.32,975.045,1045.109,1005.94z"/>
				<path d="M960.296,959.912c0,0-22.475,22.843-45.234,28.063c7.966-26.643,13.655-46.843,27.311-53.386
					c13.655-6.543,28.733-7.681,28.733-7.681L960.296,959.912z"/>
				<g>
					<path style="fill:#F37A50;" d="M1023.285,1003.349c-7.078,6.581-8.449,16.612-3.063,22.405
						c5.387,5.791,15.49,5.15,22.567-1.431c7.078-6.581,8.449-16.612,3.064-22.403
						C1040.467,996.127,1030.362,996.766,1023.285,1003.349z"/>
					<g>
						<path style="fill:#DE623C;" d="M1029.388,1023.127c-0.296-0.117-0.57-0.303-0.797-0.555
							c-3.261-3.625-3.919-7.963-1.763-11.604c2.209-3.728,6.741-5.743,10.777-4.793c1.136,0.268,1.84,1.406,1.572,2.541
							c-0.268,1.137-1.405,1.841-2.541,1.572c-2.212-0.52-4.922,0.725-6.172,2.834c-1.2,2.026-0.751,4.379,1.268,6.623
							c0.78,0.867,0.71,2.203-0.158,2.984C1030.959,1023.283,1030.108,1023.408,1029.388,1023.127z"/>
					</g>
				</g>
				<path d="M987.11,1004.6c0,3.584-2.905,6.49-6.489,6.49c-3.585,0-6.49-2.906-6.49-6.49c0-3.584,2.905-6.489,6.49-6.489
					C984.205,998.11,987.11,1001.016,987.11,1004.6z"/>
				<path d="M939.819,1004.6c0,3.584-2.905,6.49-6.489,6.49c-3.584,0-6.489-2.906-6.489-6.49c0-3.584,2.905-6.489,6.489-6.489
					C936.914,998.11,939.819,1001.016,939.819,1004.6z"/>
			</g>
			<g>
				<path style="fill:#F37A50;" d="M930.674,1844.677c2.483-24.759-10.292-213.188-10.292-213.188
					c-36.126-165.653-21.936-284.235-21.936-284.235l62.094,4.363l24.473,93.609l-11.607,156.33c0,0,4.357,12.033,6.656,21.658
					c12.468,52.184,0.05,114.547-7.628,156.117c-3.558,19.261-9.091,59.744-9.236,68.945l15.601,20.168
					c0,0-56.458,62.482-65.143,62.875c-16.881,0.762-11.907-15.957-11.907-15.957
					C924.952,1891.533,929.964,1851.768,930.674,1844.677z"/>
				<path style="fill:#E62552;" d="M979.764,1890.586l-3.106,40.143l-7.216,0.326l-3.649-37.281
					c-19.206,4.902-32.966,39.756-32.966,39.756c-13.229,4.745-46.855,7.999-58.824,1.833c-2.89-11.729,27.797-19.952,27.797-19.952
					c2.771,3.283,19.152,5.798,24.969,2.281c21.42-18.237,31.864-44.754,36.43-69.415
					C963.197,1848.276,997.043,1850.637,979.764,1890.586z"/>
			</g>
			<g>
				<path style="fill:#F37A50;" d="M951.673,1359.304l87.475-12.05c33.463,75.709,44.371,207.525,53.455,254.483
					c36.463,61.14,48.041,246.54,48.041,246.54l15.601,20.168c0,0-56.458,62.482-65.144,62.875
					c-16.881,0.762-11.907-15.957-11.907-15.957c23.206-23.83,27.728-55.489,29.231-62.455
					c2.258-10.469-70.803-216.148-70.803-216.148l-7.8-19.516c-89.239-147.392-103.882-258.818-103.882-258.818L951.673,1359.304z"
					/>
				<path style="fill:#E62552;" d="M1157.21,1890.586l-3.106,40.143l-7.215,0.326l-3.65-37.281
					c-19.206,4.902-32.966,39.756-32.966,39.756c-13.229,4.745-46.855,7.999-58.824,1.833c-2.89-11.729,27.797-19.952,27.797-19.952
					c2.771,3.283,19.152,5.798,24.97,2.281c21.419-18.237,31.863-44.754,36.429-69.415
					C1140.644,1848.276,1174.489,1850.637,1157.21,1890.586z"/>
			</g>
			<g>
				<g>
					<g>
						<g>
							<path style="fill:#070635;" d="M1114.304,1593.137c-8.736-29.229-4.935-238.438-82.056-295.327l-132.712,13.983
								c-30.668,49.641-19.418,178.811-9.091,285.114C952.843,1619.18,1002.455,1628.117,1114.304,1593.137z"/>
						</g>
					</g>
				</g>
			</g>
			<g>
				<g>
					<g>
						<path style="fill:#E62552;" d="M897.917,1279.045c0-29.063-25.188-72.604-13.113-101.943
							c8.794-23.6,26.071-76.844,44.898-80.438c7.64-1.458,16.024,0.011,26.603-2.915c0,0-5.523,24.648,6.91,25.645
							c23.934,1.92,36.513-28.765,36.513-28.765c12.904-1.233,57.908,12.198,57.88,17.057
							c-0.141,38.071-11.524,90.886-21.639,132.047c-1.877,20.958,2.962,37.906,5.061,49.767
							c3.833,12.361,10.093,26.006,10.122,28.678c0,0-99.007,31.631-155.452,0.557
							C895.699,1318.734,897.917,1298.674,897.917,1279.045z"/>
					</g>
				</g>
			</g>
			<path style="fill:#FFFFFF;" d="M963.215,1119.393c-2.134,9.957,3.651,21.894,20.332,16.297
				c19.979-6.705,29.311-44.204,29.311-44.204l-12.527-6.786C1000.33,1084.699,990.819,1110.602,963.215,1119.393z"/>
			<path style="fill:#FFFFFF;" d="M963.215,1119.393c-2.466,5.129-16.518,18.279-23.177,10.445
				c-6.659-7.832,3.392-34.088,3.392-34.088l13.167-3.762C956.597,1091.988,950.364,1112.266,963.215,1119.393z"/>
			<path style="fill:#C4204A;" d="M1056.929,1106.034c0,0,75.61,93.36,63.655,140.583c-33.106,24.256-49.956-3.951-49.956-3.951
				l-43.986-72.142c0,0-18.354-25.134-4.44-49.833C1034.322,1099.178,1056.929,1106.034,1056.929,1106.034z"/>
			<g>
				<path style="fill:#FFFFFF;" d="M954.739,1317.678h-33.465c-2.731,0-4.991-2.123-5.162-4.848l-4.856-77.275
					c-0.113-1.798,1.314-3.317,3.115-3.317h47.472c1.805,0,3.232,1.525,3.115,3.325l-5.059,77.281
					C959.723,1315.563,957.465,1317.678,954.739,1317.678z"/>
				<path style="fill:#809DF2;" d="M961.17,1253.196l-3.592,57.517c-0.158,2.528-2.165,4.493-4.584,4.493h-29.72
					c-2.427,0-4.433-1.972-4.585-4.508l-3.363-56.095c6.06-2.159,14.456-3.42,22.735,0.938
					C945.914,1259.67,956.778,1255.313,961.17,1253.196z"/>
			</g>
			<g>
				<path style="fill:#F37A50;" d="M983.896,1273.936c0,0,52.106-25.101,69.155-34.668c17.847-10.016,39.372-23.313,67.533,7.35
					c-8.688,33.678-50.32,52.868-137.479,51.547C984.592,1285.621,983.896,1273.936,983.896,1273.936z"/>
				<path style="fill:#F37A50;" d="M983.896,1273.936c-10.508-4.717-12.19-23.533-20.26-19.277
					c-0.412,8.517-0.761,12.004-0.962,16.62c-0.264,6.077-38.74,2.184-49.585-0.824c-8.653,8.378-8.516,18.269-1.099,30.768
					c6.088,10.259,27.564,23.14,71.114-3.058C986.624,1283.824,983.896,1273.936,983.896,1273.936z"/>
			</g>
			<g>
				<path style="fill:#F37A50;" d="M744.662,1303.283c0,0,81.37-61.864,100.604-65.367c8.547-1.555,17.789,17.715,26.285,39.125
					c-27.984,24.087-68.766,42.779-123.962,50.309C747.138,1314.727,744.662,1303.283,744.662,1303.283z"/>
				<g>
					<g>
						<g>
							<g>
								<path style="fill:#F37A50;" d="M731.43,1344.344c6.54-6.406,10.513-16.729,20.257-17.602l4.511-16.617l-7.34-8.101
									c-28.815-5.145-59.368,18.164-62.119,20.719c-7.146,6.639-10.915,9.316-10.46,10.75c0.455,1.434,5.28,9,15.988-0.328
									c13.438-11.707,16.06,6.493-17.995,24.106c-8.527,4.41-16.619,19.896-7.643,19.76
									C676.518,1376.877,701.675,1373.5,731.43,1344.344z"/>
							</g>
						</g>
					</g>
				</g>
			</g>
		</g>
	</g>
	<g>
		<g>
			<path style="fill:#809DF2;" d="M1406.307,1397.92h-132.34c-42.069,0-76.172-34.103-76.172-76.172v-232.292
				c0-42.068,34.103-76.171,76.171-76.171h132.342c42.068,0,76.171,34.102,76.171,76.171v232.292
				C1482.479,1363.817,1448.375,1397.92,1406.307,1397.92z"/>
			<g>
				<path style="fill:#768FDB;" d="M1481.294,1096.668h-282.315c-5.149,0-9.323-4.175-9.323-9.323l0,0
					c0-5.149,4.174-9.324,9.323-9.324h282.315c5.149,0,9.324,4.175,9.324,9.324l0,0
					C1490.618,1092.493,1486.443,1096.668,1481.294,1096.668z"/>
				<path style="fill:#768FDB;" d="M1481.294,1333.186h-282.315c-5.149,0-9.323-4.174-9.323-9.324l0,0
					c0-5.149,4.174-9.324,9.323-9.324h282.315c5.149,0,9.324,4.175,9.324,9.324l0,0
					C1490.618,1329.012,1486.443,1333.186,1481.294,1333.186z"/>
			</g>
			<rect x="1301.718" y="1395.121" style="fill:#809DF2;" width="76.836" height="14.262"/>
		</g>
		<g>
			<path style="fill:#B4C2F0;" d="M1451.929,1935.619h-219.835c-16.717,0-30.268-13.551-30.268-30.268v-465.697
				c0-16.716,13.551-30.267,30.268-30.267h219.835c16.716,0,30.267,13.552,30.267,30.267v465.697
				C1482.196,1922.068,1468.645,1935.619,1451.929,1935.619z"/>
			<path style="fill:#768FDB;" d="M1434.323,1658.711h-182.467c-9.384,0-16.991-7.607-16.991-16.99v-158.417
				c0-9.384,7.606-16.99,16.99-16.99h182.468c9.384,0,16.991,7.607,16.991,16.991v158.416
				C1451.314,1651.104,1443.707,1658.711,1434.323,1658.711z"/>
			<path style="fill:#B4C2F0;" d="M1435.968,1493.275v138.481c0,7.352-5.966,13.316-13.316,13.316h-159.119
				c-7.36,0-13.316-5.965-13.316-13.316v-138.481c0-7.36,5.956-13.317,13.316-13.317h159.119
				C1430.002,1479.957,1435.968,1485.914,1435.968,1493.275z"/>
			<g>
				<path style="fill:#2C2858;" d="M1316.41,1531.531c0,9.67-7.84,17.51-17.51,17.51c-9.67,0-17.509-7.84-17.509-17.51
					c0-9.67,7.839-17.51,17.509-17.51C1308.57,1514.021,1316.41,1521.861,1316.41,1531.531z"/>
				<path style="fill:#2C2858;" d="M1298.9,1564.537L1298.9,1564.537c-3.58,0-6.483-2.902-6.483-6.484v-15.802
					c0-3.581,2.903-6.483,6.483-6.483l0,0c3.581,0,6.483,2.902,6.483,6.483v15.802
					C1305.383,1561.635,1302.481,1564.537,1298.9,1564.537z"/>
				<path style="fill:#FFFFFF;" d="M1306.903,1495.399v21.414c0,3.541-2.869,6.41-6.403,6.41h-3.191
					c-3.535,0-6.411-2.869-6.411-6.41v-21.414c0-3.543,2.876-6.412,6.411-6.412h3.191
					C1304.034,1488.986,1306.903,1491.855,1306.903,1495.399z"/>
				<path style="fill:#E62552;" d="M1306.903,1495.399v7.822h-16.005v-7.822c0-3.543,2.876-6.412,6.411-6.412h3.191
					C1304.034,1488.986,1306.903,1491.855,1306.903,1495.399z"/>
			</g>
			<g>
				<path style="fill:#2C2858;" d="M1392.973,1531.531c0,9.67-7.84,17.51-17.51,17.51c-9.669,0-17.509-7.84-17.509-17.51
					c0-9.67,7.84-17.51,17.509-17.51C1385.133,1514.021,1392.973,1521.861,1392.973,1531.531z"/>
				<path style="fill:#2C2858;" d="M1375.463,1564.537L1375.463,1564.537c-3.58,0-6.482-2.902-6.482-6.484v-15.802
					c0-3.581,2.902-6.483,6.482-6.483l0,0c3.581,0,6.483,2.902,6.483,6.483v15.802
					C1381.946,1561.635,1379.044,1564.537,1375.463,1564.537z"/>
				<path style="fill:#FFFFFF;" d="M1383.466,1495.399v21.414c0,3.541-2.869,6.41-6.403,6.41h-3.191
					c-3.535,0-6.411-2.869-6.411-6.41v-21.414c0-3.543,2.876-6.412,6.411-6.412h3.191
					C1380.597,1488.986,1383.466,1491.855,1383.466,1495.399z"/>
				<path style="fill:#809DF2;" d="M1383.466,1495.399v7.822h-16.005v-7.822c0-3.543,2.876-6.412,6.411-6.412h3.191
					C1380.597,1488.986,1383.466,1491.855,1383.466,1495.399z"/>
			</g>
			<path style="fill:#2C2858;" d="M1435.968,1631.756c0,7.352-5.966,13.316-13.316,13.316h-159.119
				c-7.36,0-13.316-5.965-13.316-13.316H1435.968z"/>
			<path style="fill:#768FDB;" d="M1443.193,1715.459h-201.73c-4.553,0-8.244-3.689-8.244-8.243l0,0
				c0-4.552,3.691-8.243,8.244-8.243h201.73c4.553,0,8.244,3.691,8.244,8.243l0,0
				C1451.438,1711.77,1447.746,1715.459,1443.193,1715.459z"/>
		</g>
		<path style="fill:#9EB7FF;" d="M1299.929,1272.85c3.896,3.896,3.896,10.213,0,14.109c-3.896,3.896-10.214,3.896-14.11,0
			c-3.896-3.896-3.896-10.213,0-14.109C1289.715,1268.953,1296.032,1268.953,1299.929,1272.85z"/>
		<path style="fill:#9EB7FF;" d="M1275.669,1240.336c1.338,0,2.598,0.521,3.544,1.468c1.953,1.954,1.953,5.135,0,7.089
			c-0.946,0.947-2.206,1.469-3.544,1.469c-1.339,0-2.598-0.522-3.544-1.469c-1.955-1.954-1.955-5.135-0.001-7.088
			C1273.071,1240.858,1274.33,1240.336,1275.669,1240.336L1275.669,1240.336z M1275.669,1237.094c-2.112,0-4.225,0.807-5.837,2.418
			c-3.224,3.223-3.224,8.449,0,11.674c1.612,1.611,3.725,2.418,5.837,2.418c2.113,0,4.225-0.807,5.837-2.418
			c3.223-3.224,3.223-8.451,0-11.674C1279.894,1237.9,1277.782,1237.094,1275.669,1237.094L1275.669,1237.094z"/>
		<path style="fill:#9EB7FF;" d="M1361.889,1224.816c3.896,3.896,3.896,10.214,0,14.111c-3.897,3.896-10.214,3.896-14.11,0
			c-3.896-3.898-3.896-10.215,0-14.111C1351.675,1220.92,1357.991,1220.92,1361.889,1224.816z"/>
		<path style="fill:#9EB7FF;" d="M1396.579,1150.764c3.896,3.896,3.896,10.214,0,14.109c-3.896,3.897-10.214,3.897-14.11,0
			c-3.896-3.896-3.896-10.213,0-14.109C1386.365,1146.867,1392.683,1146.867,1396.579,1150.764z"/>
		<path style="fill:#9EB7FF;" d="M1370.224,1369.541c2.741,2.74,2.741,7.184,0,9.926c-2.741,2.741-7.186,2.741-9.928,0
			c-2.74-2.741-2.74-7.186,0-9.926C1363.038,1366.799,1367.482,1366.799,1370.224,1369.541z"/>
		<path style="fill:#9EB7FF;" d="M1384.871,1343.303c2.742,2.741,2.742,7.185,0,9.926c-2.74,2.742-7.186,2.742-9.926,0
			c-2.742-2.74-2.742-7.185,0-9.926C1377.686,1340.563,1382.131,1340.563,1384.871,1343.303z"/>
		<path style="fill:#9EB7FF;" d="M1308.427,1054.93c2.741,2.742,2.741,7.188,0,9.928c-2.74,2.74-7.185,2.74-9.927,0
			c-2.741-2.74-2.741-7.186,0-9.928C1301.242,1052.189,1305.687,1052.189,1308.427,1054.93z"/>
	</g>
	<g>
		<g>
			<path style="fill:#0E6A41;" d="M1742.014,1865.003c16.282,68.378,74.486,30.769,62.315,73.986
				c-0.896,3.185-3.925,5.315-7.233,5.44l-34.176,1.308c-3.299,0.126-6.549-0.814-9.271-2.679
				c-18.031-12.346-30.265-29.734-69.207-31.844c0.296-16.626-0.46-40.366,5.034-48.853L1742.014,1865.003z"/>
			<path style="fill:#201D40;" d="M1651.945,1385.17c0,0,99.398,151.6,113.119,198.755c13.722,47.154-14.982,127.058-9.791,288.089
				c-31.065,8.065-72.487,1.132-72.487,1.132s-24.93-201.985,4.393-249.679c-43.938-67.045-154.3-213.414-154.3-213.414
				L1651.945,1385.17z"/>
		</g>
		<g>
			<path style="fill:#0E6A41;" d="M1596.822,1887.045c25.292,34.427,88.422,14.066,85.889,60.273
				c-95.685-1.523-135.459-1.316-135.459-1.316c0.229-10.615,2.366-35.799,4.669-45.643L1596.822,1887.045z"/>
			<path style="fill:#2C2858;" d="M1626.471,1354.524c0,0,31.694,247.332,24.379,295.894
				c-7.317,48.563-29.985,86.574-30.781,247.687c-31.344,6.904-79.244,13.11-79.244,13.11s-20.198-194.323,21.346-247.827
				c-11.774-79.29-67.884-278.724-67.884-278.724L1626.471,1354.524z"/>
		</g>
		<g>
			<path style="fill:#C4204A;" d="M1788.846,1245.645l38.64-43.33c0.842-0.935,2.035-1.478,3.292-1.5l31.817-0.189
				c0.905-0.016,3.712,5.015,3.102,5.688l-27.255,24.221c-0.126,0.139-0.287,0.241-0.466,0.295l-46.742,17.342
				C1790.231,1248.475,1788.144,1246.422,1788.846,1245.645z"/>
			<path style="fill:#E62552;" d="M1791.797,1248.548l36.813-40.851c0.842-0.934,2.033-1.479,3.291-1.5l32.8-0.588
				c0.907-0.017,1.396,1.058,0.786,1.729l-25.921,28.578c-0.125,0.139-0.287,0.24-0.466,0.295l-46.234,14.019
				C1791.862,1250.535,1791.095,1249.326,1791.797,1248.548z"/>
			<path style="fill:#F37A50;" d="M1719.063,1285.807l26.623-13.05c0,0,26.261-26.576,30.16-32.515
				c5.841-2.957,16.892-10.398,19.378-10.684c2.485-0.283,7.575,0.484,7.575,0.484l-12.326,14.021c0,0,5.854,1.162,13.323-3.582
				c7.469-4.745,20.663-17.468,27.125-15.001c2.292,2.025,2.292,2.025,2.292,2.025s4.079-4.357,7.927-2.736
				c3.848,1.62-3.802,20.806-25.512,41.139c-1.44,5.43-8.592,14.943-8.592,14.943l-43.894,15.417L1719.063,1285.807z"/>
			<path style="fill:#C4204A;" d="M1834.605,1213.861c-1.559,1.559-3.801,1.846-5.007,0.641c-1.205-1.207-0.919-3.449,0.641-5.008
				c1.559-1.561,3.801-1.846,5.006-0.641C1836.452,1210.061,1836.166,1212.301,1834.605,1213.861z"/>
			<path style="fill:#F37A50;" d="M1595.093,1090.041c7.899,10.237-53.975,21.371-62.267,0.095
				c-8.294-21.276,5.949-79.802,5.949-79.802l56.412,11.975C1595.187,1022.309,1584.813,1076.716,1595.093,1090.041z"/>
			<g>
				<path style="fill:#F37A50;" d="M1526.437,962.563c-4.75,45.261,20.217,84.977,55.765,88.707
					c35.548,3.73,68.217-29.936,72.966-75.197c4.75-45.261-20.217-84.977-55.765-88.708
					C1563.854,883.635,1531.186,917.302,1526.437,962.563z"/>
				<path d="M1634.167,989.398c1.258,3.501,5.115,5.322,8.618,4.064c3.502-1.256,5.321-5.115,4.064-8.617
					c-1.257-3.502-5.115-5.322-8.617-4.064C1634.729,982.038,1632.909,985.896,1634.167,989.398z"/>
				<path d="M1589.987,979.748c1.36,3.791,5.537,5.761,9.329,4.4c3.79-1.361,5.761-5.537,4.399-9.328
					c-1.36-3.791-5.537-5.762-9.329-4.401C1590.597,971.781,1588.626,975.956,1589.987,979.748z"/>
				<path style="fill:#DE623C;" d="M1621.302,987.992c1.428,10.607,3.413,23.66,3.413,23.66s-6.971,7.352-18.531,2.269
					c5.781,0.19,12.078-0.908,13.03-8.298C1620.167,998.234,1621.302,987.992,1621.302,987.992z"/>
				<g>
					<path style="fill:#201D40;" d="M1636.144,974.014c0.758,0.455,1.728,0.508,2.559,0.061c0.082-0.044,2.89-1.475,5.519-0.472
						c1.854,0.707,3.338,2.528,4.409,5.412c0.497,1.338,1.985,2.02,3.323,1.522c1.338-0.497,2.02-1.986,1.523-3.323
						c-1.625-4.372-4.143-7.221-7.483-8.467c-4.89-1.826-9.56,0.676-9.757,0.784c-1.253,0.685-1.713,2.255-1.027,3.507
						C1635.437,973.456,1635.764,973.786,1636.144,974.014z"/>
				</g>
				<g>
					<path style="fill:#201D40;" d="M1602.532,966.649c-0.863,0.179-1.797-0.089-2.434-0.786c-0.065-0.067-2.243-2.345-5.057-2.262
						c-1.983,0.057-3.984,1.289-5.945,3.659c-0.91,1.1-2.538,1.254-3.64,0.344c-1.099-0.91-1.253-2.539-0.344-3.639
						c2.974-3.593,6.288-5.455,9.854-5.533c5.218-0.115,8.805,3.786,8.955,3.952c0.958,1.059,0.875,2.693-0.184,3.65
						C1603.385,966.355,1602.968,966.559,1602.532,966.649z"/>
				</g>
				<path style="fill:#201D40;" d="M1539.651,991.31c23.419-19.604,16.952-49.558,16.952-49.558
					c11.356,0.743,14.538,5.599,14.538,5.599c9.131-10.486,6.908-20.362,6.908-20.362c24.613-2.681,31.817,14.729,50.604,25.002
					c25.726,14.068,62.672,12.246,74.905-20.489c1.771-4.74-2.729-9.327-7.521-7.704c-4.444,1.505-9.994,2.196-16.17,0.344
					c0,0,7.518-4.949,10.235-13.867c1.5-4.919-3.595-9.164-8.267-7.015c-7.003,3.221-18.83,4.86-36.798-3.782
					c-11.959-5.753-35.356-33.691-54.378-34.589c-15.551-0.736-30.565,8.623-40.398,25.157c0,0-37.099-5.981-51.415,32.762
					c-14.067,38.065,38.661,96.869,38.661,96.869S1533.462,997.337,1539.651,991.31z"/>
				<path style="fill:#FFFFFF;" d="M1618.438,1031.233c1.466-0.949,1.101-3.18-0.595-3.594c-4.313-1.055-11.39-2.941-17.903-5.383
					c-6.516-2.442-13.088-5.673-17.031-7.712c-1.551-0.804-3.291,0.638-2.811,2.316c1.48,5.163,5.372,13.614,15.357,17.356
					C1605.439,1037.961,1613.929,1034.15,1618.438,1031.233z"/>
				<g>
					<path style="fill:#F37A50;" d="M1556.325,964.648c7.619,7.516,8.808,18.664,2.657,24.897
						c-6.15,6.234-17.313,5.196-24.931-2.321c-7.618-7.516-8.808-18.663-2.656-24.897
						C1537.546,956.093,1548.708,957.133,1556.325,964.648z"/>
					<g>
						<path style="fill:#DE623C;" d="M1548.925,986.338c0.331-0.119,0.641-0.315,0.899-0.587c3.728-3.905,4.599-8.684,2.33-12.784
							c-2.321-4.198-7.272-6.578-11.771-5.658c-1.267,0.259-2.083,1.495-1.824,2.761c0.259,1.266,1.496,2.083,2.762,1.824
							c2.465-0.504,5.424,0.962,6.738,3.338c1.262,2.282,0.687,4.871-1.62,7.289c-0.893,0.934-0.857,2.416,0.078,3.307
							C1547.18,986.461,1548.117,986.628,1548.925,986.338z"/>
					</g>
				</g>
			</g>
			<path style="fill:#3F964F;" d="M1663.857,1403.328c-44.13,9.004-123.47,24.552-165.432,8.191
				c-15.879-22.799-19.903-151.719-19.903-151.719c-4.593-132.695,11.321-152.385,47.209-196.847
				c15.057,6.921,52.753,12.818,69.324,12.946c0,0,37.552,52.137,44.877,89.994c7.43,38.388,8.27,106.639,8.96,145.732
				C1649.66,1355.043,1658.236,1375.979,1663.857,1403.328z"/>
			<path style="fill:#0E6A41;" d="M1520.502,1103.236c-25.813,50.249-19.969,105.896,55.087,215.447
				c52.563-4.584,62.87-48.394,62.87-48.394s-14.442-54.391-33.202-122.811C1586.497,1079.059,1531.798,1081.246,1520.502,1103.236z
				"/>
			<path style="fill:#0E6A41;" d="M1749.969,1259.801l-112.542,8.982c0,0-48.265-8.804-61.838,49.901
				c24.157,18.807,86.513,25.861,188.789-12.108C1753.556,1291.844,1749.969,1259.801,1749.969,1259.801z"/>
			<polygon style="fill:#FFFFFF;" points="1594.719,1072.178 1595.788,1102.449 1519.645,1070.524 1528.865,1046.037 			"/>
		</g>
	</g>
	<g>
		<g>
			<g>
				<g>
					<g>
						<path style="fill:#F37A50;" d="M1895.188,1102.131c15.147-15.279,5.211-30.949,5.211-30.949
							c8.311-1.783,52.159,64.641,71.067,106.852c32.979-33.24,91.092-78.128,106.806-80.745c0,0,21.199-5.698,28.816,19.932
							c6.799,22.876-19.717,39.087-19.717,39.087s-113.43,80.081-130.205,72.963
							C1931.063,1218.191,1907.438,1122.879,1895.188,1102.131z"/>
					</g>
				</g>
			</g>
			<g>
				<g>
					<g>
						<g>
							<path style="fill:#F37A50;" d="M1871.505,1100.242c9.257,0.564,21.42-4.012,24.986,4.287l17.55-8.905l1.104-11.018
								c-15.695-25.15-53.958-32.288-57.748-32.621c-9.842-0.864-14.411-1.88-15.18-0.563c-0.768,1.315-3.18,10.078,11.103,11.793
								c17.921,2.154,6.022,16.481-30.337,2.843c-9.104-3.415-26.237,1.017-20.04,7.669
								C1809.772,1081.059,1829.391,1097.674,1871.505,1100.242z"/>
						</g>
					</g>
				</g>
			</g>
		</g>
		<path style="fill:#201D40;" d="M2148.646,891.623c24.66-25.258,74.792-29.146,84.048,7.556c9.257,36.7,8.332,61.549,54.196,53.065
			c36.524-6.757,76.316,24.033,79.375,75.96c3.91,66.435-43.651,43.295-31.044,75.48c12.604,32.188,21.441,65.066-25.983,68.949
			c-47.426,3.883-86.658-33.707-84.286-88.041c2.373-54.332-31.031-32.469-42.671-58.582
			C2165.732,988.878,2148.646,891.623,2148.646,891.623z"/>
		<g>
			<path style="fill:#F37A50;" d="M2033.592,1896.925l-21.388-84.237l53.063-7.305c1.821,39.84,4.8,79.063,4.54,89.687
				L2033.592,1896.925z"/>
			<path style="fill:#F37A50;" d="M2160.213,1804.899h55.405c-1.822,13.279-9.088,85.174-9.088,85.174
				c-4.683,10.623-45.972,8.199-45.972,2.223C2163.681,1879.348,2160.472,1806.559,2160.213,1804.899z"/>
			<path style="fill:#C4204A;" d="M2069.616,1837.824l-54.641,8.066l-37.888-226.576c7.802-85.986,83.497-268.913,83.497-268.913
				l85.32,29.88l2.082,80.673l-102.749,173.964C2058.633,1668.561,2067.795,1777.335,2069.616,1837.824z"/>
			<path style="fill:#E62552;" d="M2111.849,1356.461c0.781-5.311,1.041-6.97,5.464-9.627l81.938-23.24l19.509,19.256
				c18.47,67.063,7.024,160.352-7.542,234.387c21.329,64.074,12.984,196.165,4.401,258.247h-58.268
				c-3.381-41.499-2.321-118.478-2.582-155.661l0,0c-7.543-29.879-14.826-61.75-21.33-95.281
				c-8.322-42.828-18.729-84.326-21.59-123.169C2109.247,1424.52,2108.468,1385.014,2111.849,1356.461z"/>
		</g>
		<path style="fill:#F37A50;" d="M2195.929,987.034c0.311,44.535-27.792,80.838-62.771,81.08
			c-34.979,0.244-63.587-35.662-63.896-80.197c-0.312-44.537,27.793-80.837,62.771-81.082
			C2167.013,906.591,2195.62,942.497,2195.929,987.034z"/>
		<path style="fill:#F37A50;" d="M2174.441,1031.334l-50.87,28.889c0,0-4.514,20.598-6.767,27.279
			c-4.649,13.791,13.165,19.815,28.225,11.231c15.059-8.584,24.809-20.069,24.809-20.069L2174.441,1031.334z"/>
		<path style="fill:#2C2858;" d="M2067.492,979.197c12.126-1.106,79.624-18.537,87.429-30.732
			c-0.637,28.964,43.001,62.013,48.85,53.511c20.436-53.549,5.542-99.398-54.379-111.353
			C2067.225,874.229,2067.492,979.197,2067.492,979.197z"/>
		<path d="M2144.251,1001.857c-2.062,3.281-6.392,4.27-9.672,2.209c-3.28-2.06-4.271-6.391-2.208-9.671
			c2.06-3.281,6.391-4.27,9.671-2.209C2145.322,994.247,2146.313,998.578,2144.251,1001.857z"/>
		<path d="M2095.217,1001.198c-1.934,3.079-6,4.008-9.079,2.073c-3.08-1.934-4.009-5.999-2.074-9.079
			c1.936-3.08,6-4.008,9.079-2.073C2096.222,994.054,2097.151,998.118,2095.217,1001.198z"/>
		<g>
			<path style="fill:#2C2858;" d="M2077.088,987.291c-0.249-0.111-0.48-0.27-0.687-0.476c-1.002-1.004-0.988-2.764,0.031-3.93
				c7.918-9.054,17.644-6.423,18.055-6.306c1.346,0.382,2.063,1.902,1.594,3.394c-0.469,1.486-1.938,2.382-3.284,2.008
				c-0.318-0.086-7.166-1.825-12.734,4.542C2079.251,987.45,2078.05,987.722,2077.088,987.291z"/>
		</g>
		<g>
			<path style="fill:#2C2858;" d="M2151.072,988.584c0.249-0.111,0.481-0.269,0.687-0.475c1.003-1.004,0.988-2.764-0.03-3.93
				c-7.921-9.055-17.646-6.422-18.055-6.307c-1.349,0.383-2.065,1.902-1.595,3.394c0.467,1.486,1.936,2.383,3.283,2.007
				c0.319-0.085,7.167-1.825,12.734,4.543C2148.908,988.744,2150.111,989.018,2151.072,988.584z"/>
		</g>
		<path style="fill:#DE623C;" d="M2100.203,1005.949c-2.058,4.324-3.694,8.615-6.066,11.542c-0.8,0.985-0.666,2.448,0.279,3.297
			c3.904,3.495,12.228,4.64,17.222,5.015c0.729,0.053,0.968-0.957,0.293-1.238c-5.715-2.369-8.572-4.57-9.897-5.863
			c-0.658-0.643-0.957-1.559-0.827-2.47c0.298-2.091,0.861-6.341,1.057-9.765C2102.33,1005.283,2100.712,1004.879,2100.203,1005.949
			z"/>
		<path style="fill:#F37A50;" d="M2179.425,1004.744c-7.304,7.506-8.246,18.435-2.104,24.412c6.142,5.979,17.042,4.738,24.346-2.768
			c7.305-7.504,8.246-18.435,2.104-24.412C2197.629,996,2186.729,997.238,2179.425,1004.744z"/>
		<g>
			<path style="fill:#DE623C;" d="M2184.333,1022.965c-0.291-0.184-0.546-0.436-0.737-0.75c-2.741-4.514-2.57-9.266,0.458-12.709
				c3.101-3.525,8.333-4.76,12.438-2.935c1.155,0.513,1.678,1.864,1.163,3.021c-0.514,1.155-1.866,1.676-3.021,1.165
				c-2.25-1-5.388-0.22-7.143,1.774c-1.686,1.916-1.679,4.512,0.021,7.307c0.655,1.08,0.313,2.49-0.771,3.146
				C2185.976,1023.449,2185.045,1023.412,2184.333,1022.965z"/>
		</g>
		<path style="fill:#3F964F;" d="M2057.338,1356.485c88.888,34.171,166.387,8.921,166.387,8.921
			c-0.27-11.816,1.408-49.076-16.574-89.826c4.362-34.512,2.696-86.367,4.062-106.262c-10.587-53.371-5.559-57.887,3.992-83.032
			l-33.259-9.818l-59.866,21.112l-4.445-14.438c0,0-37.363,11.326-45.258,15.69l-14.351,56.859l3.069,125.736
			C2061.095,1281.428,2060.963,1348.788,2057.338,1356.485z"/>
		<g>
			<path style="fill:#DE623C;" d="M2116.188,1049.01c1.471,0.146,2.944,0.15,4.42,0.016c10.9-1,17.778-9.375,18.065-9.73
				c0.889-1.1,0.716-2.713-0.383-3.602c-1.1-0.887-2.708-0.719-3.599,0.379l0,0c-0.059,0.07-5.876,7.08-14.601,7.856
				c-5.684,0.506-11.463-1.719-17.175-6.615c-1.074-0.92-2.691-0.795-3.612,0.279c-0.921,1.074-0.796,2.691,0.278,3.611
				C2104.991,1045.838,2110.56,1048.453,2116.188,1049.01z"/>
		</g>
		<g>
			<path style="fill:#2C2858;" d="M2046.5,1895.564c-5.55-14.57-17.412-16.191-17.412-16.191
				c-23.058,30.758-79.688,11.885-77.813,53.485c86.112-0.534,121.901,0,121.901,0c-0.113-9.555-1.814-32.233-3.801-41.112
				l-4.488,0.799L2046.5,1895.564z"/>
			<path style="fill:#FFFFFF;" d="M1956.258,1943.965h111.893c2.776,0,5.026-2.252,5.026-5.029v-7.223h-121.947v7.223
				C1951.229,1941.713,1953.479,1943.965,1956.258,1943.965z"/>
		</g>
		<g>
			<path style="fill:#2C2858;" d="M2150.691,1933.262c0,0,6.912-25.791,7.521-29.104c0.692-3.767,2.725-12.675,3.139-17.242
				c0.103-1.124,11.973-8.383,21.035-8.369c12.276,0.02,23.467,7.133,23.692,8.475c1.45,8.607,1.492,18.725,3.841,27.107
				c1.746,6.234,6.489,20.764,6.489,20.764L2150.691,1933.262z"/>
			<g>
				<g>
					<g>
						<g>
							<path style="fill:#FFFFFF;" d="M2150.691,1931.258c1.612,5.119,21.487-0.787,35.993-0.783
								c12.178,0.004,27.936,4.721,29.725,2.885c3.045,5.378,0.537,16.525,0.537,16.525s-12.69,0.656-27.912,0
								c-15.221-0.656-32.81,0.315-39.437-1.652C2145.417,1941.24,2150.691,1931.258,2150.691,1931.258z"/>
						</g>
					</g>
				</g>
			</g>
		</g>
		<path style="fill:#201D40;" d="M2185.982,1077.66c-12.848,20.602-40.065,77.566-37.337,152.057
			c2.729,74.492,21.372,164.996,12.774,247.971c43.769,3.886,85.544-1.726,85.544-1.726c-4.662-48.961-31.76-389.675-31.76-389.675
			C2201.484,1082.236,2185.982,1077.66,2185.982,1077.66z"/>
		<g>
			<g id="c_9_">
				<path style="fill:#F37A50;" d="M2253.304,1289.35l-8.104,3.239c0,0-5.968-13.751-14.533-13.323l1.1,13.617
					c0,0-4.152,14.529-30.1,12.813c-22.163,5.037-6.658,15.56-12.795,19.769c-9.054,6.21,16.338,21.463,37.731,14.883
					c27.681-8.512,45.665-34.65,45.665-34.65L2253.304,1289.35z"/>
			</g>
			<path style="fill:#F37A50;" d="M2215.204,1086.286c0,0,78.051,34.634,121.664,125.294c-25.471,35.855-52.95,14.531-52.95,14.531
				l-72.706-56.793c0,0-17.374-24.105-13.502-51.117C2201.467,1092.006,2215.204,1086.286,2215.204,1086.286z"/>
			<path style="fill:#F37A50;" d="M2251.996,1289.873l36.555-64.445c0,0,6.323-28.916,48.317-13.848
				c2.033,22.578,9.195,46.086-65.706,95.629C2261.437,1299.624,2251.996,1289.873,2251.996,1289.873z"/>
		</g>
		<path style="fill:#0E6A41;" d="M2170.384,1069.81l23.454,9.962c-2.476,28.164-65.499,44.994-65.499,44.994l-6.256-27.186
			L2170.384,1069.81z"/>
		<path style="fill:#201D40;" d="M2098.688,1087.334c-11.524,36.813-28.903,88.178-24.163,143.271
			c4.739,55.096,10.461,143.994-17.188,237.996c-20.538,3.949-48.507,0.973-48.507,0.973s40.465-138.049,38.669-199.4
			c-1.991-68.096,1.129-129.363,17.872-168.346C2077.967,1096.404,2098.688,1087.334,2098.688,1087.334z"/>
		<path style="fill:#0E6A41;" d="M2122.083,1097.58l-18.558,20.621c0,0-16.046-16.598-10.238-26.855
			c5.809-10.256,26.495-17.176,26.495-17.176L2122.083,1097.58z"/>
	</g>
	<g>
		<path style="fill:#FFFFFF;" d="M1574.291,1572.485c-8.524,0-17.127-0.231-25.569-0.688c-3.86-0.211-6.82-3.51-6.61-7.369
			c0.209-3.861,3.53-6.823,7.368-6.612c9.754,0.53,19.69,0.75,29.546,0.646c0.025,0,0.05,0,0.074,0c3.832,0,6.959,3.086,6.998,6.928
			c0.04,3.865-3.061,7.033-6.927,7.072C1577.543,1572.479,1575.916,1572.485,1574.291,1572.485z M1609.068,1571.191
			c-3.627,0-6.697-2.799-6.973-6.477c-0.289-3.853,2.601-7.215,6.456-7.504c9.941-0.746,19.814-1.824,29.344-3.205
			c3.831-0.548,7.377,2.098,7.932,5.924c0.555,3.824-2.098,7.377-5.923,7.932c-9.848,1.428-20.043,2.541-30.305,3.311
			C1609.422,1571.186,1609.245,1571.191,1609.068,1571.191z M1984.997,1569.395c-0.087,0-0.172-0.002-0.26-0.004
			c-11.125-0.406-21.717-2.377-31.479-5.858c-3.642-1.299-5.541-5.303-4.242-8.944c1.298-3.642,5.303-5.538,8.944-4.243
			c8.412,3,17.594,4.701,27.287,5.054c3.864,0.142,6.882,3.387,6.74,7.25C1991.85,1566.426,1988.746,1569.395,1984.997,1569.395z
			 M1519.225,1569.166c-0.287,0-0.577-0.018-0.869-0.053c-10.366-1.283-20.511-2.935-30.155-4.914
			c-3.787-0.776-6.228-4.477-5.451-8.264c0.776-3.787,4.476-6.233,8.264-5.451c9.283,1.903,19.062,3.496,29.063,4.734
			c3.837,0.475,6.563,3.969,6.087,7.806C1525.724,1566.569,1522.706,1569.166,1519.225,1569.166z M2014.75,1566.326
			c-3.138,0-5.991-2.123-6.787-5.304c-0.938-3.751,1.343-7.552,5.093-8.489c9.504-2.376,17.982-6.035,25.196-10.88
			c3.211-2.155,7.561-1.298,9.714,1.911c2.155,3.21,1.299,7.559-1.911,9.715c-8.563,5.748-18.524,10.066-29.601,12.836
			C2015.883,1566.258,2015.312,1566.326,2014.75,1566.326z M1668.396,1562.494c-3.196,0-6.083-2.204-6.82-5.453
			c-0.854-3.77,1.509-7.521,5.278-8.375c9.899-2.244,19.408-4.871,28.26-7.805c3.67-1.215,7.632,0.773,8.848,4.442
			c1.215,3.671-0.774,7.632-4.443,8.847c-9.28,3.076-19.228,5.824-29.568,8.17
			C1669.431,1562.438,1668.909,1562.494,1668.396,1562.494z M1460.542,1556.943c-0.688,0-1.387-0.104-2.078-0.316
			c-10.44-3.242-20.164-6.963-28.9-11.061c-3.5-1.641-5.006-5.809-3.364-9.311c1.642-3.499,5.809-5.004,9.309-3.365
			c8.157,3.826,17.276,7.314,27.107,10.364c3.692,1.146,5.756,5.069,4.609,8.761
			C1466.293,1555.018,1463.527,1556.943,1460.542,1556.943z M1930.101,1548.592c-1.751,0-3.504-0.652-4.863-1.965
			c-8.32-8.04-14.004-17.725-16.892-28.787c-0.978-3.74,1.263-7.564,5.004-8.541c3.737-0.979,7.566,1.262,8.542,5.004
			c2.229,8.539,6.629,16.027,13.075,22.256c2.78,2.686,2.857,7.116,0.171,9.899
			C1933.765,1547.877,1931.934,1548.592,1930.101,1548.592z M1725.155,1543.358c-2.603,0-5.103-1.459-6.309-3.961
			c-1.679-3.482-0.217-7.666,3.266-9.346c9.218-4.446,17.5-9.371,24.613-14.643c3.108-2.3,7.489-1.646,9.791,1.459
			c2.301,3.105,1.648,7.489-1.457,9.79c-7.819,5.794-16.858,11.177-26.867,16.005
			C1727.212,1543.133,1726.175,1543.358,1725.155,1543.358z M2062.247,1532.64c-1.093,0-2.202-0.257-3.238-0.798
			c-3.426-1.793-4.75-6.021-2.958-9.447c3.537-6.763,5.332-14.324,5.332-22.476c0-0.961-0.025-1.94-0.075-2.916
			c-0.195-3.86,2.777-7.148,6.639-7.343c3.85-0.177,7.148,2.776,7.345,6.639c0.06,1.207,0.092,2.425,0.092,3.62
			c0,10.435-2.331,20.181-6.928,28.966C2067.205,1531.274,2064.769,1532.64,2062.247,1532.64z M1406.818,1530.892
			c-1.49,0-2.993-0.474-4.265-1.453c-2.488-1.915-4.86-3.909-7.05-5.927c-4.968-4.575-10.483-9.773-15.706-14.705
			c-2.811-2.654-2.938-7.084-0.283-9.894c2.654-2.812,7.084-2.94,9.896-0.285c5.19,4.902,10.669,10.066,15.578,14.588
			c1.889,1.739,3.942,3.467,6.104,5.131c3.065,2.358,3.636,6.752,1.277,9.817
			C1410.991,1529.953,1408.917,1530.892,1406.818,1530.892z M1772.271,1507.171c-1.457,0-2.926-0.452-4.184-1.392
			c-3.097-2.315-3.732-6.701-1.417-9.799c0.504-0.674,0.992-1.354,1.47-2.039c5.181-7.452,11.564-14.699,18.976-21.542
			c2.843-2.624,7.271-2.446,9.892,0.393c2.622,2.842,2.445,7.27-0.394,9.892c-6.665,6.154-12.377,12.63-16.978,19.247
			c-0.566,0.816-1.152,1.627-1.752,2.43C1776.51,1506.201,1774.404,1507.171,1772.271,1507.171z M1914.513,1493.287
			c-0.245,0-0.49-0.013-0.737-0.039c-3.846-0.402-6.637-3.846-6.233-7.689c1.096-10.475,3.082-20.759,5.901-30.563
			c1.069-3.715,4.947-5.86,8.664-4.793c3.714,1.069,5.859,4.947,4.792,8.664c-2.595,9.018-4.424,18.488-5.434,28.149
			C1921.089,1490.613,1918.05,1493.287,1914.513,1493.287z M1362.721,1490.145c-1.707,0-3.418-0.62-4.767-1.873
			c-7.96-7.406-15.182-13.99-22.076-20.132c-2.887-2.571-3.143-6.995-0.571-9.884c2.571-2.886,6.997-3.143,9.883-0.57
			c6.971,6.209,14.265,12.859,22.3,20.334c2.831,2.633,2.991,7.063,0.358,9.893
			C1366.469,1489.395,1364.597,1490.145,1362.721,1490.145z M2060.947,1474.774c-2.605,0-5.105-1.461-6.313-3.966
			c-3.862-8.025-9.421-15.136-16.519-21.137c-2.954-2.495-3.324-6.911-0.828-9.864c2.494-2.953,6.912-3.324,9.865-0.826
			c8.612,7.279,15.375,15.945,20.097,25.756c1.677,3.482,0.213,7.666-3.271,9.344
			C2063,1474.551,2061.967,1474.774,2060.947,1474.774z M1815.642,1466.295c-2.3,0-4.551-1.132-5.89-3.208
			c-2.095-3.249-1.159-7.581,2.09-9.675c8.343-5.381,17.453-10.402,27.072-14.931c3.499-1.645,7.669-0.144,9.316,3.354
			c1.646,3.499,0.145,7.668-3.354,9.315c-9.062,4.265-17.623,8.983-25.446,14.028
			C1818.255,1465.934,1816.941,1466.295,1815.642,1466.295z M1317.816,1450.277c-1.585,0-3.178-0.533-4.487-1.631
			c-7.85-6.564-15.646-12.834-23.176-18.64c-3.062-2.36-3.631-6.756-1.271-9.818c2.36-3.063,6.755-3.629,9.817-1.271
			c7.676,5.917,15.619,12.307,23.609,18.989c2.966,2.479,3.36,6.895,0.879,9.86
			C1321.805,1449.424,1319.816,1450.277,1317.816,1450.277z M1869.723,1440.627c-2.915,0-5.639-1.838-6.627-4.754
			c-1.242-3.66,0.718-7.636,4.379-8.877c9.642-3.272,19.598-6.074,29.592-8.326c3.771-0.854,7.519,1.516,8.368,5.287
			c0.851,3.771-1.517,7.519-5.288,8.369c-9.517,2.146-18.996,4.813-28.174,7.928
			C1871.229,1440.506,1870.47,1440.627,1869.723,1440.627z M2016.879,1436.209c-0.866,0-1.745-0.162-2.599-0.503
			c-8.224-3.29-17.454-5.798-27.434-7.452c-3.816-0.633-6.395-4.236-5.762-8.051c0.633-3.815,4.242-6.385,8.05-5.762
			c10.979,1.82,21.188,4.602,30.349,8.268c3.589,1.436,5.334,5.51,3.897,9.099
			C2022.285,1434.545,2019.657,1436.209,2016.879,1436.209z M1931.063,1436.091c-1.057,0-2.131-0.241-3.142-0.749
			c-3.276-1.648-4.696-5.524-3.347-8.865c-1.801-1.084-3.097-2.961-3.354-5.211c-0.438-3.843,2.321-7.312,6.163-7.749
			c1.556-0.178,3.109-0.341,4.661-0.489c2.856-4.627,5.95-9.15,9.257-13.539c2.327-3.089,6.719-3.703,9.804-1.375
			c3.087,2.326,3.703,6.717,1.377,9.803c-1.002,1.328-1.98,2.668-2.938,4.021c2.91-0.078,5.79-0.104,8.645-0.079
			c3.865,0.039,6.969,3.203,6.932,7.068c-0.038,3.843-3.163,6.932-6.997,6.932c-0.024,0-0.048,0-0.07,0
			c-5.763-0.061-11.642,0.123-17.625,0.527c-1.082,1.936-2.117,3.888-3.107,5.852
			C1936.092,1434.68,1933.625,1436.091,1931.063,1436.091z M1270.233,1413.719c-1.379,0-2.771-0.408-3.99-1.255
			c-8.342-5.8-16.678-11.245-24.777-16.181c-3.302-2.012-4.347-6.32-2.335-9.621c2.012-3.301,6.319-4.348,9.62-2.334
			c8.34,5.082,16.914,10.682,25.485,16.642c3.174,2.207,3.957,6.568,1.751,9.742
			C1274.626,1412.67,1272.447,1413.719,1270.233,1413.719z M1966.816,1388.355c-1.841,0-3.679-0.721-5.052-2.154
			c-2.677-2.789-2.586-7.221,0.203-9.897c7.198-6.905,15.187-13.563,23.746-19.788c3.128-2.275,7.504-1.584,9.778,1.543
			c2.274,3.126,1.583,7.504-1.543,9.779c-8.049,5.853-15.548,12.101-22.287,18.567
			C1970.305,1387.707,1968.559,1388.355,1966.816,1388.355z M1218.928,1382.601c-1.075,0-2.166-0.249-3.188-0.772
			c-8.979-4.603-17.959-8.724-26.689-12.246c-3.585-1.445-5.319-5.524-3.873-9.11c1.447-3.585,5.524-5.318,9.11-3.872
			c9.121,3.68,18.487,7.975,27.839,12.771c3.441,1.763,4.8,5.982,3.036,9.423C1223.922,1381.211,1221.47,1382.601,1218.928,1382.601
			z M1018.25,1375.933c-2.441,0-4.813-1.277-6.1-3.556c-1.903-3.365-0.718-7.636,2.647-9.539c9.166-5.182,18.64-9.604,28.156-13.142
			c3.623-1.35,7.654,0.498,9.001,4.121c1.347,3.624-0.498,7.654-4.122,9.001c-8.824,3.28-17.62,7.388-26.145,12.208
			C1020.6,1375.642,1019.417,1375.933,1018.25,1375.933z M1163.285,1360.373c-0.625,0-1.259-0.084-1.89-0.262
			c-9.582-2.68-19.142-4.699-28.413-6.003c-3.829-0.536-6.496-4.077-5.959-7.905c0.538-3.827,4.084-6.5,7.905-5.957
			c9.887,1.389,20.059,3.535,30.238,6.383c3.724,1.042,5.896,4.904,4.855,8.627
			C1169.157,1358.349,1166.346,1360.373,1163.285,1360.373z M2500.87,1357.404c-2.7,0-5.272-1.57-6.42-4.203
			c-2.674-6.125-8.696-12.226-17.901-18.133c-3.254-2.088-4.2-6.418-2.111-9.672c2.087-3.252,6.414-4.199,9.671-2.111
			c11.578,7.428,19.374,15.609,23.174,24.318c1.546,3.543-0.074,7.668-3.618,9.214
			C2502.754,1357.215,2501.804,1357.404,2500.87,1357.404z M1074.253,1355.24c-3.304,0-6.244-2.35-6.873-5.715
			c-0.71-3.799,1.794-7.457,5.594-8.168c10.107-1.891,20.533-2.93,30.985-3.09c3.871-0.059,7.047,3.027,7.107,6.893
			c0.06,3.865-3.026,7.048-6.892,7.106c-9.664,0.148-19.295,1.107-28.626,2.853C1075.112,1355.201,1074.68,1355.24,1074.253,1355.24
			z M2015.063,1352.98c-2.438,0-4.805-1.275-6.093-3.545c-1.909-3.363-0.733-7.636,2.63-9.544
			c8.582-4.872,17.783-9.526,27.346-13.833c3.524-1.588,7.668-0.017,9.257,3.507c1.586,3.525,0.017,7.671-3.508,9.259
			c-9.167,4.127-17.976,8.584-26.183,13.241C2017.422,1352.686,2016.234,1352.98,2015.063,1352.98z M2069.646,1328.23
			c-2.869,0-5.561-1.777-6.587-4.634c-1.309-3.639,0.581-7.647,4.22-8.954c9.284-3.339,19.044-6.476,29.011-9.326
			c3.716-1.061,7.594,1.089,8.656,4.806c1.063,3.718-1.09,7.593-4.807,8.655c-9.669,2.766-19.131,5.807-28.124,9.038
			C2071.232,1328.098,2070.432,1328.23,2069.646,1328.23z M2453.45,1322.949c-0.842,0-1.699-0.154-2.532-0.478
			c-8.327-3.235-17.691-6.263-27.83-9.001c-3.732-1.008-5.941-4.85-4.934-8.581c1.008-3.733,4.854-5.94,8.583-4.935
			c10.617,2.866,20.459,6.052,29.25,9.467c3.604,1.399,5.39,5.455,3.991,9.059C2458.9,1321.252,2456.254,1322.949,2453.45,1322.949z
			 M2127.295,1311.656c-3.203,0-6.094-2.213-6.824-5.469c-0.846-3.773,1.525-7.517,5.297-8.363
			c9.658-2.168,19.687-4.145,29.803-5.874c3.82-0.644,7.427,1.911,8.079,5.721c0.651,3.811-1.91,7.429-5.721,8.079
			c-9.882,1.689-19.67,3.619-29.095,5.733C2128.317,1311.6,2127.802,1311.656,2127.295,1311.656z M2395.675,1307.002
			c-0.441,0-0.888-0.041-1.337-0.129c-9.333-1.807-19.166-3.416-29.227-4.78c-3.832-0.521-6.516-4.048-5.995-7.878
			c0.519-3.832,4.043-6.516,7.877-5.996c10.32,1.402,20.416,3.053,30.004,4.91c3.796,0.734,6.278,4.406,5.542,8.201
			C2401.892,1304.678,2398.96,1307.002,2395.675,1307.002z M2186.442,1301.494c-3.484,0-6.501-2.598-6.938-6.145
			c-0.472-3.837,2.255-7.329,6.092-7.802c9.896-1.219,20.045-2.244,30.166-3.049c3.827-0.303,7.226,2.568,7.533,6.424
			c0.305,3.854-2.57,7.226-6.424,7.532c-9.921,0.787-19.867,1.794-29.564,2.986
			C2187.017,1301.477,2186.729,1301.494,2186.442,1301.494z M2336.234,1298.846c-0.204,0-0.409-0.01-0.616-0.027
			c-9.714-0.848-19.688-1.498-29.643-1.934c-3.862-0.17-6.855-3.438-6.688-7.299c0.17-3.863,3.454-6.852,7.3-6.688
			c10.155,0.443,20.333,1.107,30.247,1.974c3.853,0.336,6.702,3.732,6.365,7.581
			C2342.883,1296.098,2339.825,1298.846,2336.234,1298.846z M2246.271,1296.723c-3.744,0-6.846-2.961-6.99-6.734
			c-0.146-3.863,2.867-7.114,6.731-7.26c9.371-0.356,18.885-0.535,28.28-0.535l2.021,0.002c3.866,0.013,6.991,3.154,6.979,7.021
			c-0.013,3.86-3.145,6.979-7,6.979c-0.008,0-0.014,0-0.021,0l-1.979-0.002c-9.22,0-18.555,0.176-27.751,0.525
			C2246.45,1296.722,2246.361,1296.723,2246.271,1296.723z"/>
	</g>
	<g>
		<path style="fill:#FFFFFF;" d="M2775.763,773.657h-189.097c-14.916,0-27.008-12.093-27.008-27.01v-80.693
			c0-14.915,12.092-27.008,27.008-27.008h189.097c14.916,0,27.008,12.093,27.008,27.008v80.693
			C2802.771,761.563,2790.679,773.657,2775.763,773.657z"/>
		<path style="fill:#FFFFFF;" d="M2660.92,1006.963h-245.49c-19.363,0-35.063-15.698-35.063-35.064V867.143
			c0-19.365,15.7-35.063,35.063-35.063h245.49c19.364,0,35.063,15.698,35.063,35.063v104.756
			C2695.983,991.265,2680.284,1006.963,2660.92,1006.963z"/>
		<polygon style="fill:#FFFFFF;" points="2598.225,773.657 2598.225,843.688 2641.842,773.657 		"/>
		<path style="fill:#FFFFFF;" d="M2651.287,999.128v65.104c0,5.226-7.032,6.91-9.399,2.25l-34.217-67.354H2651.287z"/>
		<path style="fill:#E3EAFF;" d="M2763.404,693.62h-164.379c-7.966,0-14.421-6.457-14.421-14.419l0,0
			c0-7.963,6.455-14.419,14.421-14.419h164.379c7.963,0,14.42,6.456,14.42,14.419l0,0
			C2777.824,687.163,2771.367,693.62,2763.404,693.62z"/>
		<path style="fill:#E3EAFF;" d="M2763.404,740.187h-164.379c-7.966,0-14.421-6.457-14.421-14.419v-0.001
			c0-7.963,6.455-14.419,14.421-14.419h164.379c7.963,0,14.42,6.456,14.42,14.419v0.001
			C2777.824,733.731,2771.367,740.187,2763.404,740.187z"/>
		<path style="fill:#E3EAFF;" d="M2654.828,886.736h-230.35c-8.86,0-16.041-7.181-16.041-16.04l0,0
			c0-8.858,7.181-16.04,16.041-16.04h230.35c8.859,0,16.04,7.182,16.04,16.04l0,0
			C2670.868,879.555,2663.688,886.736,2654.828,886.736z"/>
		<path style="fill:#E3EAFF;" d="M2654.828,937.618h-230.35c-8.86,0-16.041-7.181-16.041-16.04l0,0
			c0-8.858,7.181-16.04,16.041-16.04h230.35c8.859,0,16.04,7.182,16.04,16.04l0,0
			C2670.868,930.438,2663.688,937.618,2654.828,937.618z"/>
		<path style="fill:#E3EAFF;" d="M2657.183,988.5h-147.824c-7.558,0-13.684-6.126-13.684-13.685v-4.71
			c0-7.558,6.126-13.685,13.684-13.685h147.824c7.559,0,13.686,6.127,13.686,13.685v4.71
			C2670.868,982.374,2664.741,988.5,2657.183,988.5z"/>
	</g>
	<g>
		<path style="fill:#FFFFFF;" d="M504.797,893.834c-0.122,0-0.246-0.003-0.369-0.01c-3.861-0.201-6.828-3.494-6.628-7.355
			c0.23-4.435,1.225-16.347,5.465-31.155c1.065-3.716,4.94-5.869,8.656-4.802c3.717,1.064,5.867,4.939,4.803,8.656
			c-3.844,13.423-4.736,24.072-4.941,28.028C511.588,890.934,508.496,893.834,504.797,893.834z M521.185,836.435
			c-1.112,0-2.239-0.266-3.289-0.826c-3.411-1.821-4.7-6.06-2.88-9.471c5.026-9.419,11.072-18.149,17.968-25.948
			c2.56-2.896,6.984-3.167,9.88-0.607c2.896,2.561,3.169,6.984,0.607,9.88c-6.172,6.981-11.591,14.81-16.104,23.267
			C526.106,835.091,523.687,836.435,521.185,836.435z M560.584,791.976c-2.216,0-4.396-1.05-5.755-3.007
			c-2.206-3.176-1.42-7.538,1.755-9.743c8.396-5.832,17.691-10.857,27.629-14.938c3.577-1.469,7.665,0.24,9.134,3.816
			c1.469,3.576-0.239,7.665-3.816,9.133c-8.999,3.696-17.396,8.234-24.959,13.487C563.354,791.57,561.962,791.976,560.584,791.976z
			 M615.463,769.011c-3.229,0-6.133-2.248-6.838-5.535c-0.81-3.779,1.598-7.501,5.378-8.312c9.636-2.065,19.934-3.502,30.606-4.268
			c3.86-0.281,7.207,2.624,7.483,6.48c0.277,3.856-2.625,7.207-6.48,7.484c-10.025,0.72-19.674,2.064-28.675,3.994
			C616.443,768.959,615.949,769.011,615.463,769.011z M697.92,765.376c-4.352,0-8.835-0.154-13.327-0.456
			c-3.29-0.221-6.583-0.391-9.788-0.508c-3.863-0.14-6.881-3.386-6.742-7.248c0.141-3.863,3.383-6.863,7.25-6.743
			c3.347,0.122,6.785,0.3,10.218,0.53c6.558,0.441,13.045,0.54,19.219,0.287c3.851-0.15,7.121,2.847,7.277,6.711
			c0.157,3.863-2.848,7.121-6.71,7.278C702.892,765.326,700.403,765.376,697.92,765.376z M734.666,761.155
			c-3.148,0-6.007-2.137-6.792-5.329c-0.924-3.754,1.371-7.546,5.125-8.47c9.397-2.313,18.266-5.662,26.355-9.953
			c3.416-1.811,7.654-0.512,9.464,2.903c1.813,3.415,0.512,7.652-2.902,9.464c-9.107,4.831-19.057,8.593-29.572,11.18
			C735.782,761.089,735.22,761.155,734.666,761.155z M786.929,733.182c-1.86,0-3.716-0.737-5.094-2.197
			c-2.652-2.812-2.522-7.243,0.29-9.896c6.701-6.319,12.693-13.648,17.81-21.782c2.059-3.273,6.381-4.256,9.652-2.198
			c3.272,2.059,4.257,6.38,2.197,9.653c-5.746,9.135-12.493,17.382-20.055,24.513C790.378,732.55,788.651,733.182,786.929,733.182z
			 M818.873,683.074c-0.784,0-1.581-0.133-2.36-0.412c-3.64-1.304-5.533-5.312-4.229-8.951c3.141-8.763,5.521-18.113,7.079-27.79
			c0.614-3.818,4.199-6.412,8.023-5.799c3.817,0.613,6.413,4.206,5.799,8.023c-1.693,10.525-4.292,20.717-7.722,30.289
			C824.438,681.292,821.746,683.074,818.873,683.074z M1749.995,671.782c-2.375,0-4.691-1.209-6.006-3.392
			c-5.002-8.313-10.436-16.596-16.154-24.617c-2.243-3.148-1.51-7.519,1.638-9.763c3.147-2.243,7.519-1.511,9.764,1.637
			c5.926,8.315,11.563,16.904,16.75,25.526c1.993,3.312,0.923,7.613-2.39,9.606C1752.467,671.458,1751.223,671.782,1749.995,671.782
			z M776.339,625.408c-0.135,0-0.271-0.004-0.406-0.012c-10.794-0.62-21.149-1.981-30.781-4.047
			c-3.78-0.811-6.187-4.532-5.376-8.312c0.811-3.779,4.528-6.19,8.313-5.376c8.93,1.915,18.568,3.179,28.646,3.758
			c3.86,0.221,6.81,3.53,6.588,7.39C783.108,622.531,780.021,625.408,776.339,625.408z M806.31,625.321
			c-3.683,0-6.768-2.875-6.981-6.598c-0.223-3.859,2.727-7.168,6.586-7.391c5.008-0.288,10.178-0.715,15.466-1.277
			c-0.322-7.277-1.084-14.524-2.272-21.622c-0.64-3.813,1.935-7.423,5.747-8.06c3.81-0.64,7.421,1.935,8.06,5.747
			c1.222,7.289,2.024,14.721,2.398,22.186c3.767-0.452,7.222,2.177,7.767,5.949c0.552,3.827-2.103,7.376-5.929,7.929
			c-1.498,0.215-2.991,0.422-4.478,0.62c-1.146,0.834-2.556,1.331-4.081,1.338c-0.893,0.003-1.832-0.175-2.65-0.504
			c-6.587,0.755-13.021,1.316-19.224,1.672C806.581,625.317,806.445,625.321,806.31,625.321z M1715.233,622.956
			c-2.011,0-4.004-0.86-5.388-2.526c-6.211-7.474-12.82-14.876-19.649-22.002c-2.674-2.792-2.579-7.223,0.212-9.898
			c2.791-2.675,7.224-2.58,9.899,0.212c7.055,7.363,13.886,15.015,20.305,22.74c2.471,2.974,2.063,7.387-0.909,9.857
			C1718.396,622.426,1716.809,622.956,1715.233,622.956z M865.672,616.958c-3.236,0-6.143-2.258-6.841-5.55
			c-0.802-3.781,1.614-7.498,5.396-8.299c9.229-1.957,18.928-4.284,28.829-6.918c3.733-0.993,7.57,1.229,8.565,4.965
			c0.993,3.736-1.229,7.57-4.966,8.564c-10.13,2.695-20.063,5.079-29.524,7.084C866.642,616.908,866.153,616.958,865.672,616.958z
			 M718.076,612.436c-0.937,0-1.888-0.189-2.8-0.588c-8.098-3.538-15.774-7.814-22.818-12.71c-1.486-1.032-2.937-2.06-4.35-3.083
			c-3.134-2.265-3.837-6.641-1.571-9.774c2.265-3.134,6.642-3.836,9.774-1.571c1.344,0.973,2.722,1.949,4.135,2.932
			c6.298,4.376,13.174,8.204,20.437,11.378c3.542,1.548,5.159,5.675,3.61,9.217C723.345,610.867,720.773,612.436,718.076,612.436z
			 M923.684,601.638c-2.987,0-5.755-1.928-6.684-4.932c-1.145-3.692,0.922-7.612,4.616-8.757c9.091-2.815,18.611-5.938,28.298-9.285
			c3.652-1.265,7.64,0.677,8.902,4.33c1.263,3.654-0.677,7.64-4.331,8.902c-9.828,3.396-19.494,6.566-28.729,9.427
			C925.066,601.537,924.37,601.638,923.684,601.638z M980.433,582.103c-2.835,0-5.503-1.734-6.557-4.546
			c-1.356-3.62,0.479-7.654,4.099-9.011c8.939-3.352,18.31-6.981,27.848-10.787c3.591-1.435,7.664,0.317,9.096,3.907
			c1.434,3.592-0.316,7.663-3.906,9.097c-9.63,3.842-19.092,7.506-28.124,10.893C982.079,581.958,981.249,582.103,980.433,582.103z
			 M1673.774,579.646c-1.684,0-3.372-0.604-4.714-1.827c-7.2-6.565-14.76-13.017-22.469-19.18c-3.021-2.413-3.512-6.818-1.098-9.838
			c2.414-3.021,6.817-3.513,9.839-1.097c7.944,6.351,15.736,13.001,23.159,19.769c2.858,2.604,3.062,7.032,0.457,9.889
			C1677.568,578.877,1675.675,579.646,1673.774,579.646z M669.162,578.229c-1.771,0-3.542-0.668-4.905-2.007
			c-8.819-8.667-15.39-17.266-19.528-25.557c-1.728-3.459-0.323-7.663,3.136-9.39c3.46-1.727,7.662-0.321,9.39,3.138
			c3.446,6.901,9.104,14.244,16.815,21.823c2.758,2.71,2.797,7.142,0.086,9.898C672.785,577.529,670.975,578.229,669.162,578.229z
			 M818.522,565.263c-2.872,0-5.564-1.78-6.589-4.638c-3.382-9.427-7.55-18-12.39-25.481c-2.101-3.246-1.17-7.58,2.075-9.68
			c3.246-2.1,7.579-1.17,9.68,2.075c5.422,8.383,10.069,17.923,13.813,28.358c1.305,3.64-0.587,7.646-4.227,8.953
			C820.104,565.13,819.307,565.263,818.522,565.263z M1036.197,559.898c-2.738,0-5.337-1.615-6.46-4.299
			c-1.492-3.566,0.188-7.668,3.754-9.16c8.755-3.664,18.014-7.614,27.521-11.741c3.548-1.541,7.67,0.087,9.208,3.633
			c1.539,3.547-0.087,7.67-3.633,9.209c-9.563,4.151-18.88,8.126-27.691,11.814C1038.015,559.724,1037.098,559.898,1036.197,559.898
			z M1626.945,542.19c-1.389,0-2.791-0.411-4.014-1.269c-8.007-5.616-16.323-11.077-24.719-16.23
			c-3.295-2.022-4.326-6.333-2.304-9.627c2.023-3.295,6.33-4.327,9.628-2.305c8.638,5.303,17.194,10.921,25.434,16.699
			c3.165,2.221,3.931,6.585,1.712,9.751C1631.32,541.15,1629.15,542.19,1626.945,542.19z M1091.271,536.024
			c-2.679,0-5.235-1.545-6.396-4.15c-1.575-3.53,0.011-7.669,3.542-9.244c8.543-3.81,17.48-7.836,27.322-12.305
			c3.52-1.598,7.67-0.041,9.269,3.479c1.598,3.521,0.041,7.67-3.479,9.269c-9.87,4.482-18.837,8.52-27.41,12.345
			C1093.192,535.829,1092.225,536.024,1091.271,536.024z M648.567,525.643c-0.915,0-1.846-0.183-2.741-0.563
			c-3.557-1.516-5.21-5.628-3.694-9.183c4.133-9.694,12.802-17.807,25.071-23.462c3.513-1.619,7.669-0.086,9.287,3.427
			c1.618,3.51,0.085,7.668-3.427,9.286c-9.063,4.178-15.305,9.793-18.054,16.239C653.876,524.045,651.288,525.643,648.567,525.643z
			 M785.443,516.162c-1.483,0-2.979-0.47-4.248-1.44c-4.854-3.716-10.019-6.539-15.347-8.394c-3.054-1.064-6.188-2.051-9.316-2.932
			c-3.722-1.049-5.888-4.916-4.839-8.637c1.048-3.722,4.914-5.89,8.636-4.838c3.399,0.957,6.805,2.029,10.124,3.185
			c6.734,2.346,13.211,5.877,19.25,10.497c3.069,2.35,3.655,6.742,1.306,9.813C789.631,515.216,787.549,516.162,785.443,516.162z
			 M1145.938,511.23c-2.653,0-5.188-1.514-6.367-4.083c-1.612-3.514-0.07-7.669,3.443-9.28c6.277-2.88,12.52-5.751,18.72-8.601
			l8.549-3.931c3.513-1.614,7.668-0.074,9.284,3.439c1.613,3.513,0.074,7.669-3.438,9.283l-8.547,3.929
			c-6.204,2.852-12.448,5.723-18.73,8.605C1147.906,511.025,1146.913,511.23,1145.938,511.23z M1575.845,510.805
			c-1.114,0-2.243-0.267-3.293-0.828c-8.654-4.624-17.568-9.052-26.495-13.163c-3.512-1.616-5.048-5.773-3.431-9.285
			c1.616-3.513,5.777-5.048,9.286-3.431c9.177,4.226,18.342,8.777,27.237,13.532c3.41,1.822,4.696,6.063,2.875,9.473
			C1580.764,509.462,1578.345,510.805,1575.845,510.805z M699.033,498.24c-3.516,0-6.545-2.642-6.947-6.218
			c-0.433-3.842,2.331-7.307,6.173-7.738c9.917-1.116,20.625-1.161,31.396-0.13c3.85,0.368,6.67,3.787,6.302,7.635
			c-0.368,3.85-3.801,6.661-7.635,6.302c-9.812-0.941-19.541-0.903-28.496,0.105C699.559,498.226,699.295,498.24,699.033,498.24z
			 M1200.496,486.197c-2.658,0-5.199-1.521-6.374-4.098c-1.603-3.518-0.052-7.669,3.466-9.273c3.153-1.439,6.292-2.867,9.415-4.283
			c6.051-2.745,12.306-5.338,18.59-7.71c3.616-1.365,7.656,0.46,9.021,4.079c1.365,3.617-0.462,7.655-4.079,9.02
			c-6.001,2.265-11.973,4.741-17.747,7.361c-3.115,1.413-6.246,2.837-9.392,4.272
			C1202.454,485.993,1201.467,486.197,1200.496,486.197z M1521.373,485.722c-0.848,0-1.708-0.155-2.544-0.481
			c-9.167-3.579-18.542-6.921-27.865-9.934c-3.679-1.19-5.697-5.135-4.509-8.815c1.189-3.678,5.137-5.695,8.814-4.509
			c9.588,3.099,19.228,6.536,28.652,10.216c3.6,1.406,5.38,5.466,3.975,9.066C1526.815,484.03,1524.172,485.722,1521.373,485.722z
			 M1464.307,467.295c-0.577,0-1.163-0.071-1.747-0.222c-9.563-2.457-19.267-4.63-28.847-6.46c-3.797-0.724-6.288-4.391-5.563-8.188
			c0.725-3.797,4.388-6.288,8.188-5.564c9.865,1.884,19.86,4.121,29.705,6.652c3.744,0.962,6,4.777,5.037,8.521
			C1470.27,465.196,1467.425,467.295,1464.307,467.295z M1256.592,465.151c-3.079,0-5.9-2.047-6.749-5.16
			c-1.017-3.729,1.182-7.578,4.911-8.596c9.696-2.645,19.744-4.906,29.864-6.724c3.806-0.689,7.444,1.848,8.128,5.652
			c0.683,3.806-1.848,7.443-5.653,8.127c-9.716,1.745-19.355,3.915-28.655,6.452
			C1257.821,465.071,1257.201,465.151,1256.592,465.151z M1405.403,456.068c-0.288,0-0.578-0.018-0.871-0.054
			c-9.809-1.217-19.701-2.104-29.403-2.637c-3.86-0.212-6.817-3.513-6.606-7.374c0.213-3.86,3.502-6.824,7.374-6.604
			c10.021,0.55,20.234,1.466,30.359,2.722c3.836,0.476,6.561,3.973,6.085,7.809C1411.9,453.474,1408.884,456.068,1405.403,456.068z
			 M1315.565,454.499c-3.566,0-6.615-2.714-6.96-6.337c-0.367-3.849,2.456-7.266,6.304-7.632c9.984-0.952,20.242-1.527,30.488-1.708
			c3.888-0.048,7.054,3.01,7.123,6.875c0.068,3.865-3.01,7.054-6.875,7.123c-9.887,0.176-19.781,0.729-29.408,1.646
			C1316.013,454.488,1315.787,454.499,1315.565,454.499z"/>
	</g>
	<g>
		<polygon style="fill:#BDCDFF;" points="1755.964,623.589 1733.295,660.715 1928.434,793.85 		"/>
		<polygon style="fill:#BDCDFF;" points="1713.175,705.274 1724.987,747.851 1919.754,787.713 		"/>
		<polygon style="fill:#FFFFFF;" points="1928.434,793.85 1599.354,681.683 1713.171,641.656 		"/>
		<polygon style="fill:#FFFFFF;" points="1755.964,623.589 1928.434,793.85 1827.489,593.39 		"/>
	</g>
	<g>
		<path style="fill:#FFFFFF;" d="M2923.784,360.647c-3.863,0-6.997-3.131-7-6.994c-0.002-3.867,3.129-7.003,6.995-7.006
			c10.069-0.008,19.479-1.12,27.968-3.306c3.744-0.965,7.561,1.289,8.524,5.032c0.966,3.744-1.288,7.56-5.032,8.524
			c-9.625,2.479-20.206,3.741-31.45,3.749C2923.789,360.647,2923.787,360.647,2923.784,360.647z M2893.946,357.983
			c-0.39,0-0.783-0.032-1.18-0.1c-9.553-1.618-19.646-3.979-30-7.013c-3.71-1.087-5.836-4.976-4.749-8.687
			c1.088-3.71,4.981-5.833,8.687-4.748c9.831,2.881,19.388,5.116,28.403,6.645c3.811,0.646,6.377,4.259,5.73,8.071
			C2900.259,355.567,2897.297,357.983,2893.946,357.983z M2980.767,344.999c-2.24,0-4.441-1.073-5.795-3.066
			c-2.173-3.196-1.343-7.551,1.854-9.724c6.611-4.494,12.528-10.127,17.586-16.743c2.351-3.073,6.742-3.656,9.813-1.311
			c3.071,2.347,3.659,6.74,1.311,9.811c-5.972,7.814-12.981,14.482-20.839,19.821
			C2983.491,344.607,2982.122,344.999,2980.767,344.999z M2496.799,343.445c-1.407,0-2.826-0.422-4.058-1.3
			c-3.148-2.244-3.882-6.615-1.637-9.764c5.675-7.96,12.41-15.951,20.018-23.75c2.7-2.768,7.132-2.822,9.899-0.122
			c2.767,2.699,2.821,7.132,0.122,9.898c-7.109,7.287-13.381,14.722-18.64,22.101
			C2501.138,342.424,2498.984,343.445,2496.799,343.445z M2836.355,341.422c-0.846,0-1.705-0.154-2.541-0.48
			c-9.109-3.552-18.527-7.613-27.992-12.073c-3.497-1.648-4.997-5.818-3.348-9.316c1.646-3.496,5.817-4.996,9.314-3.349
			c9.178,4.324,18.299,8.258,27.111,11.694c3.602,1.405,5.383,5.464,3.979,9.065
			C2841.801,339.729,2839.157,341.422,2836.355,341.422z M2782.042,315.953c-1.13,0-2.275-0.274-3.338-0.851
			c-8.75-4.756-17.596-9.866-26.294-15.192c-3.297-2.019-4.332-6.328-2.314-9.625c2.019-3.297,6.328-4.335,9.625-2.314
			c8.493,5.199,17.129,10.19,25.669,14.831c3.397,1.845,4.653,6.096,2.808,9.491
			C2786.929,314.628,2784.524,315.953,2782.042,315.953z M2538.407,300.427c-2.061,0-4.102-0.905-5.482-2.642
			c-2.408-3.025-1.907-7.43,1.118-9.837c8.111-6.455,16.62-12.403,25.29-17.682c3.304-2.013,7.608-0.964,9.618,2.338
			c2.012,3.303,0.965,7.609-2.338,9.619c-8.172,4.976-16.196,10.588-23.854,16.681
			C2541.472,299.929,2539.934,300.427,2538.407,300.427z M2730.864,284.633c-1.36,0-2.737-0.397-3.944-1.223
			c-3.098-2.118-6.199-4.282-9.22-6.435c-4.917-3.503-10.046-6.617-15.244-9.256c-3.447-1.75-4.822-5.964-3.072-9.411
			c1.75-3.447,5.961-4.824,9.411-3.072c5.816,2.953,11.546,6.431,17.029,10.338c2.948,2.101,5.976,4.215,8.997,6.281
			c3.191,2.183,4.009,6.538,1.828,9.73C2735.292,283.566,2733.097,284.633,2730.864,284.633z M2589.592,269.437
			c-2.712,0-5.292-1.586-6.433-4.233c-1.529-3.551,0.109-7.669,3.661-9.197c9.839-4.238,19.771-7.585,29.521-9.949
			c3.755-0.913,7.542,1.396,8.453,5.152c0.91,3.758-1.397,7.542-5.154,8.453c-8.986,2.179-18.166,5.274-27.283,9.202
			C2591.454,269.253,2590.516,269.437,2589.592,269.437z M2677.456,258.429c-0.493,0-0.993-0.052-1.493-0.161
			c-9.031-1.964-18.528-2.807-28.101-2.518c-3.845,0.135-7.094-2.919-7.211-6.784c-0.117-3.863,2.92-7.092,6.785-7.209
			c10.692-0.33,21.355,0.624,31.501,2.829c3.778,0.822,6.174,4.552,5.352,8.328C2683.578,256.191,2680.679,258.429,2677.456,258.429
			z"/>
	</g>
	<g>
		<polygon style="fill:#BDCDFF;" points="2490.043,315.125 2500.142,346.969 2330.205,410.473 		"/>
		<polygon style="fill:#BDCDFF;" points="2506.976,383.889 2490.359,413.475 2337.804,407.488 		"/>
		<polygon style="fill:#FFFFFF;" points="2330.205,410.473 2596.183,387.165 2518.644,336.445 		"/>
		<polygon style="fill:#FFFFFF;" points="2490.043,315.125 2330.205,410.473 2442.241,279.489 		"/>
	</g>
	<g>
		<path style="fill:#FFFFFF;" d="M2272.479,682.652c8.267-6.247,18.187-9.369,29.759-9.369c24.983,0,38.211,13.593,38.211,32.698
			c0,11.022-5.328,22.227-16.166,33.434c-13.778,14.511-23.698,21.676-29.944,21.676c-6.061,0-10.471-4.776-10.471-10.47
			c0-5.144,4.777-10.288,13.044-17.819c0.551-0.551,1.101-1.102,1.469-1.286c9.369-8.634,12.308-13.41,12.308-19.289
			c0-7.349-4.959-11.39-12.124-11.39c-3.306,0-7.164,0.734-11.757,2.205c-4.591,1.469-7.898,2.205-9.92,2.205
			c-5.143,0-11.021-4.41-11.021-11.757C2265.866,689.632,2268.071,685.958,2272.479,682.652z M2297.646,805.179
			c-11.204,0-18.736-8.451-18.736-18.738c0-8.817,7.532-17.267,18.736-17.267c9.737,0,17.268,8.45,17.268,17.267
			C2314.913,796.545,2307.75,805.179,2297.646,805.179z"/>
	</g>
	<g>
		<path style="fill:#FFFFFF;" d="M1196.596,192.179c6.538-4.941,14.385-7.412,23.539-7.412c19.763,0,30.225,10.753,30.225,25.865
			c0,8.719-4.214,17.583-12.787,26.447c-10.897,11.479-18.744,17.146-23.684,17.146c-4.796,0-8.283-3.778-8.283-8.282
			c0-4.069,3.778-8.139,10.316-14.096c0.437-0.436,0.872-0.872,1.163-1.017c7.411-6.83,9.736-10.608,9.736-15.259
			c0-5.811-3.924-9.009-9.591-9.009c-2.616,0-5.667,0.581-9.301,1.744c-3.633,1.163-6.248,1.743-7.846,1.743
			c-4.069,0-8.72-3.487-8.72-9.301C1191.363,197.7,1193.107,194.794,1196.596,192.179z M1216.502,289.1
			c-8.863,0-14.821-6.684-14.821-14.821c0-6.975,5.958-13.659,14.821-13.659c7.702,0,13.66,6.685,13.66,13.659
			C1230.162,282.272,1224.495,289.1,1216.502,289.1z"/>
	</g>
	<g>
		<path style="fill:#CDD8FA;" d="M890.663,266.989l-58.837,108.855c-2.243,4.148-7.414,5.69-11.557,3.451L631.087,277.04
			c-4.143-2.24-5.686-7.41-3.442-11.56l58.838-108.854c2.242-4.148,7.413-5.69,11.556-3.452l189.183,102.257
			C891.363,257.669,892.906,262.84,890.663,266.989z"/>
		<path style="fill:#FFFFFF;" d="M890.663,266.989l-3.253,6.018l-119.658,15.318c-11.753,1.737-23.272-4.363-28.44-15.06
			l-54.687-113.201l1.857-3.438c2.24-4.146,7.417-5.689,11.563-3.448l189.169,102.249
			C891.359,257.667,892.904,262.844,890.663,266.989z"/>
	</g>
	<g>
		<path style="fill:#FFFFFF;" d="M2023.522,484.792c-30.03,0-54.46-24.431-54.46-54.461c0-30.028,24.43-54.46,54.46-54.46
			c30.029,0,54.461,24.432,54.461,54.46C2077.983,460.361,2053.552,484.792,2023.522,484.792z M2023.522,390.871
			c-21.76,0-39.46,17.702-39.46,39.46c0,21.759,17.7,39.461,39.46,39.461c21.758,0,39.461-17.702,39.461-39.461
			C2062.983,408.573,2045.28,390.871,2023.522,390.871z"/>
	</g>
	<g>
		<path style="fill:#E3EAFF;" d="M3169.435,870.524c-30.029,0-54.46-24.43-54.46-54.46c0-30.03,24.431-54.46,54.46-54.46
			c30.031,0,54.461,24.43,54.461,54.46C3223.896,846.094,3199.466,870.524,3169.435,870.524z M3169.435,776.604
			c-21.758,0-39.46,17.701-39.46,39.46s17.702,39.46,39.46,39.46c21.761,0,39.461-17.701,39.461-39.46
			S3191.195,776.604,3169.435,776.604z"/>
	</g>
	<path style="fill:#FFFFFF;" d="M2145.614,343.664c0,17.171-13.919,31.093-31.092,31.093c-17.172,0-31.093-13.922-31.093-31.093
		c0-17.172,13.921-31.093,31.093-31.093C2131.695,312.571,2145.614,326.492,2145.614,343.664z"/>
	<path style="fill:#E3EAFF;" d="M3202.996,693.62c0,17.172-13.921,31.093-31.093,31.093c-17.173,0-31.094-13.921-31.094-31.093
		c0-17.172,13.921-31.093,31.094-31.093C3189.075,662.526,3202.996,676.448,3202.996,693.62z"/>
</g>
</svg>
