<?xml version="1.0" encoding="utf-8"?>
<!-- Generator: Adobe Illustrator 27.5.0, SVG Export Plug-In . SVG Version: 6.00 Build 0)  -->
<svg version="1.1" id="Слой_1" xmlns="http://www.w3.org/2000/svg" xmlns:xlink="http://www.w3.org/1999/xlink" x="0px" y="0px"
	 viewBox="0 0 3250 2000" style="enable-background:new 0 0 3250 2000;" xml:space="preserve">
<rect y="-0.001" style="fill:#FFFFFF;" width="3250" height="2000"/>
<g>
	<path style="fill:#E3EAFF;" d="M248.367,1875.361C0.953,1505.885,65.521,1087.551,350.588,876.715
		C640.371,662.391,389.87,265.819,966.636,85.387c298.371-93.34,560.755,161.217,853.21,172.277
		c262.06,9.911,533.151-214.577,799.224-110.584c177.934,59.863,355.803,227.863,342.537,428.736
		c-6.855,103.799-67.545,226.674-4.702,305.529c265.224,332.801,237.886,623.898,133.941,989.353
		C3090.872,1870.689,248.367,1875.361,248.367,1875.361z"/>
	<path style="fill:#95A6DB;" d="M3084.052,1892.518H213.276c-5.793,0-10.489-4.696-10.489-10.489v-0.506
		c0-5.792,4.696-10.489,10.489-10.489h2870.775c5.793,0,10.489,4.697,10.489,10.489v0.506
		C3094.541,1887.821,3089.845,1892.518,3084.052,1892.518z"/>
	<g>
		<g>
			<path d="M434.227,1797.99c-28.907,38.559-101.23,21.512-98.88,73.664c107.955-0.67,154.977,0.293,154.977,0.293
				c-0.142-11.978-3.1-56.81-5.59-67.94L434.227,1797.99z"/>
		</g>
		<g>
			<path d="M620.961,1797.99c28.908,38.559,101.23,21.512,98.88,73.664c-107.955-0.67-154.977,0.293-154.977,0.293
				c0.142-11.978,3.1-56.81,5.59-67.94L620.961,1797.99z"/>
		</g>
		<g>
			<path style="fill:#201D40;" d="M369.955,745.987c0,0-87.724,47.599-143.673,91.625l-30.267,91.72
				c58.394-6.944,202.995-70.227,202.995-70.227L369.955,745.987z"/>
			<path style="fill:#F37A50;" d="M178.64,646.969c2.71,14.01,2.588,28.849,19.277,37.732c0,0-6.532,45.123-7.872,82.494
				c0,0,46.083-43.628,46.081-43.667c-1.092-15.21-0.554-43.733,3.163-59.628c0.965-4.126,2.149-8.215,3.167-12.347
				c2.693-10.011,6.597-20.155,1.475-32.971c-19.788-49.514-10.362-64.414-13.458-67.017c-5.15-2.829-18.586,5.61-13.502,29.534
				c4.92,23.151,2.251,34.07,2.251,34.07s-17.791-5.001-24.767,0.769C191.285,618.556,175.471,630.593,178.64,646.969z"/>
			<path style="fill:#201D40;" d="M184.762,692.904l58.111,8.685l28.3,163.762l-75.159,63.979
				C179.751,897.248,165.744,764.248,184.762,692.904z"/>
		</g>
		<path style="fill:#201D40;" d="M637.167,1099.119c-74.223,9.015-149.38,9.299-225.51,0.496l-17.234,371.924
			c0,0,9.628,246.039,22.618,332.375l81.702-0.18c-5.339-100.402,10.17-332.447,10.17-332.447l16.29-212.158l16.371,212.086
			c0,0,16.086,231.976,11.19,332.401l85.143-0.188c12.61-86.393,17.988-332.465,17.988-332.465L637.167,1099.119z"/>
		<path style="fill:#201D40;" d="M664.099,747.295c0,0,50.057,100.994,80.426,165.385l-27.75,89.28
			c-49.132-32.314-129.23-166.465-129.23-166.465L664.099,747.295z"/>
		<polygon style="fill:#95A6DB;" points="565.108,723.093 463.422,727.607 453.168,827.102 464.25,1111.018 571.485,1109.68 
			599.514,791.851 		"/>
		<path style="fill:#2C2858;" d="M453.546,569.866c14.161-16.274,25.331-0.484,45.518-20.634
			c20.188-20.15,36.396-34.651,53.68-13.392c17.285,21.259,26.183,24.244,38.76,23.028c12.577-1.217,12.507,50.517,12.507,50.517
			s49.498-12.375,42.859-48.502c-7.36-40.05-25.576-28.587-35.767-61.034c-10.191-32.446-49.534-50.756-67.539-42.964
			c-18.982,8.216-28.944,17.249-56.589,10.534c-27.644-6.714-51.457,1.422-51.41,37.263c0.047,35.841-42.102,25.147-28.61,69.903
			c5.233,17.361,19.903,33.34,26.716,31.947C442.794,604.668,444.418,580.358,453.546,569.866z"/>
		<rect x="469.977" y="1097.903" style="fill:#494C7F;" width="99.861" height="29.784"/>
		<polygon style="fill:#DE623C;" points="480.068,748.131 515.447,776.119 551.357,748.131 556.112,679.75 475.314,679.75 		"/>
		<g>
			<path style="fill:#2C2858;" d="M369.718,746.17l1.842,444.621c34.62,28.418,102.478,36.182,102.478,36.182l-12.337-492.729
				L369.718,746.17z"/>
			<path style="fill:#2C2858;" d="M664.228,746.17l-1.843,444.621c-34.619,28.418-102.477,36.182-102.477,36.182l12.337-492.729
				L664.228,746.17z"/>
		</g>
		<polygon style="fill:#494C7F;" points="411.998,792.727 470.444,1044.895 461.572,729.788 		"/>
		<polygon style="fill:#494C7F;" points="625.025,775.263 565.108,1047.781 572.245,734.244 		"/>
		<path style="fill:#F37A50;" d="M523.618,501.371c-104.277-2.456-80.472,138.006-72.861,160.077
			c4.149,12.033,30.604,58.191,73.146,58.844c42.543-0.653,68.425-46.811,72.576-58.844
			C604.091,639.376,631.503,503.013,523.618,501.371z"/>
		<g>
			<path style="fill:#2C2858;" d="M511.124,594.322c1.054-0.563,1.901-1.517,2.305-2.742c0.832-2.527-0.543-5.25-3.07-6.082
				c-0.761-0.249-18.819-5.995-35.245,5.795c-2.161,1.551-2.655,4.562-1.104,6.723c1.551,2.16,4.56,2.657,6.723,1.104
				c12.49-8.967,26.475-4.517,26.615-4.47C508.65,595.079,510.004,594.921,511.124,594.322z"/>
		</g>
		<g>
			<path style="fill:#2C2858;" d="M556.44,592.963c-1.054-0.563-1.901-1.519-2.304-2.743c-0.832-2.527,0.543-5.251,3.07-6.082
				c0.761-0.25,18.819-5.995,35.244,5.796c2.162,1.552,2.656,4.562,1.104,6.723c-1.552,2.161-4.56,2.657-6.723,1.104
				c-12.49-8.967-26.475-4.517-26.614-4.471C558.915,593.718,557.561,593.561,556.44,592.963z"/>
		</g>
		<path d="M577.568,610.612c0,4.696-3.807,8.503-8.503,8.503c-4.697,0-8.504-3.807-8.504-8.503c0-4.697,3.807-8.504,8.504-8.504
			C573.761,602.108,577.568,605.916,577.568,610.612z"/>
		<path d="M504.635,610.612c0,4.696-3.807,8.503-8.503,8.503c-4.697,0-8.503-3.807-8.503-8.503c0-4.697,3.807-8.504,8.503-8.504
			C500.828,602.108,504.635,605.916,504.635,610.612z"/>
		<path style="fill:#DE623C;" d="M539.427,618.744c6.838,10.86,15.504,24.11,15.504,24.11s-3.945,11.491-19.087,11.704
			c6.401-2.673,12.725-7.006,10.083-15.541C543.287,630.481,539.427,618.744,539.427,618.744z"/>
		<g>
			<polygon style="fill:#E62552;" points="524.732,802.272 542.564,1041.768 515.82,1073.336 489.077,1041.768 507.314,802.888 			
				"/>
			<polygon style="fill:#E62552;" points="534.51,776.539 516.723,771.866 498.536,777.338 507.297,803.335 524.789,803.028 			"/>
			<path style="fill:#FFFFFF;" d="M515.82,771.914c0,0-11.777,17.252-32.689,27.021l-35.065-53.219l15.356-18.109L515.82,771.914z"
				/>
			<path style="fill:#FFFFFF;" d="M515.82,771.914c0,0,17.05,19.889,33.616,25.857l31.754-57.453l-14.955-17.226L515.82,771.914z"/>
		</g>
		<path style="fill:#201D40;" d="M874.827,894.583l-13.905-53.304l-135.701,59.336l-8.445,101.346
			C752.579,998.512,824.765,948.855,874.827,894.583z"/>
		<path style="fill:#FFFFFF;" d="M559.679,673.399c1.39-2.292,0.137-5.632-2.027-5.377c-5.503,0.646-14.591,1.46-23.216,1.09
			c-8.625-0.37-17.61-1.958-23.038-3.071c-2.135-0.439-3.669,2.781-2.48,5.184c3.656,7.389,11.382,18.697,24.602,19.263
			C546.741,691.054,555.405,680.449,559.679,673.399z"/>
		<path style="fill:#2C2858;" d="M441.145,595.166c11.777,3.925,15.121-80.364,60.932-49.823
			c32.251,21.5,91.694,26.875,79.676-2.281c9.635,7.137,20.555,18.406,20.555,18.406l-16.987-56.234
			c0,0-87.433-27.479-118.481,0.357C435.792,533.426,441.145,595.166,441.145,595.166z"/>
		<path style="fill:#F37A50;" d="M462.892,604.692c6.933,13.602,2.894,29.551-9.023,35.625c-11.917,6.074-27.197-0.027-34.13-13.629
			c-6.933-13.602-2.894-29.552,9.023-35.625C440.679,584.989,455.96,591.091,462.892,604.692z"/>
		<g>
			<path style="fill:#DE623C;" d="M444.849,633.218c-0.302,0-0.61-0.044-0.915-0.136c-1.657-0.505-2.592-2.257-2.087-3.914
				c2.535-8.328,2.311-14.621-0.647-18.198c-3.99-4.824-12.051-4.022-12.132-4.015c-1.72,0.184-3.267-1.056-3.457-2.773
				c-0.19-1.718,1.04-3.265,2.757-3.46c0.464-0.054,11.453-1.211,17.633,6.21c4.457,5.352,5.079,13.447,1.848,24.062
				C447.437,632.346,446.193,633.218,444.849,633.218z"/>
		</g>
		<g>
			<g>
				<g>
					<polygon style="fill:#E62552;" points="969.334,808.131 962.066,837.192 951.876,877.927 944.135,908.856 883.076,901.72 
						882.677,869.839 882.157,827.852 881.787,797.899 					"/>
				</g>
				<polygon style="fill:#C4204A;" points="873.013,796.875 978.108,809.16 977.661,797.948 876.034,786.069 				"/>
				<polygon style="fill:#C4204A;" points="969.633,797.009 884.061,787.007 887.046,776.504 969.151,786.102 				"/>
				<polygon style="fill:#C4204A;" points="944.136,908.859 941.425,919.702 883.214,912.898 883.076,901.722 				"/>
				<polygon style="fill:#C4204A;" points="962.066,837.192 951.876,877.927 882.677,869.839 882.157,827.852 				"/>
			</g>
			<path id="c_2_" style="fill:#F37A50;" d="M941.536,872.27c0.645-0.464,1.354-0.772,2.085-1.008
				c-0.08-0.107-0.167-0.208-0.246-0.316c-4.673-6.478-4.691-14.446-0.043-17.795c0.763-0.55,1.61-0.925,2.504-1.167
				c-1.435-4.877-0.508-9.623,2.811-12.015c1.318-0.949,2.872-1.41,4.526-1.458c-1.75-4.777-0.712-9.907,3.004-12.585
				c4.649-3.349,11.651-1.581,15.639,3.949c3.988,5.529,3.452,12.727-1.197,16.077c-1.177,0.848-2.505,1.365-3.896,1.579
				c3.42,6.066,3.046,12.869-1.156,15.898c-0.763,0.55-1.61,0.926-2.503,1.167c1.434,4.877,0.508,9.623-2.811,12.016
				c-1.224,0.881-2.652,1.344-4.173,1.446c1.744,4.171,0.922,8.771-2.345,11.125c-3.927,2.83-9.841,1.337-13.208-3.335
				C937.157,881.177,937.609,875.098,941.536,872.27z"/>
			<path style="fill:#F37A50;" d="M883.174,852.056c4.513-1.788,10.238-7.383,13.231-17.73
				c2.993-10.347,27.252-17.044,18.525-22.609c-8.727-5.565-35.434-0.911-45.588,22.342c-5.723,5.793-8.42,7.221-8.42,7.221
				l12.395,47.944l9.625-2.123L883.174,852.056z"/>
		</g>
	</g>
	<g>
		<g>
			<path d="M1341.97,551.403c-63.456-17.906-198.983,39.451-162.1,270.253c36.884,230.801,211.618,192.729,211.618,192.729
				s76.157-23.938,82.993-170.567C1481.317,697.188,1448.684,581.515,1341.97,551.403z"/>
			<path style="fill:#C4204A;" d="M1289.072,831.725c0,0-12.81,131.596-121.93,199.208c-19.157-5.226-37.438-49.916-37.438-49.916
				l59.542-144.192c0,0,21.344-31.149,59.008-30.612C1281.06,806.68,1289.072,831.725,1289.072,831.725z"/>
			<g>
				<g>
					<g>
						<path style="fill:#F37A50;" d="M1286.856,761.03l47.299-7.085l-3.768,43.905c0,0-23.955,43.165-46.682,35.73
							c-22.728-7.434-11.643-26.502-11.643-26.502L1286.856,761.03z"/>
					</g>
				</g>
			</g>
			<g>
				<path style="fill:#F37A50;" d="M1371.994,689.801c-7.686,51.871-46.944,89.026-87.683,82.989
					c-40.74-6.037-67.534-52.981-59.848-104.851c7.687-51.871,46.943-89.027,87.683-82.99
					C1352.886,590.987,1379.681,637.929,1371.994,689.801z"/>
				<g>
					<path d="M1319.756,675.409c-0.566-0.167-1.082-0.521-1.446-1.044c-5.28-7.582-15.903-7.368-16.01-7.364
						c-1.485,0.042-2.729-1.125-2.776-2.611c-0.046-1.485,1.114-2.727,2.599-2.779c0.554-0.018,13.634-0.347,20.612,9.672
						c0.851,1.222,0.55,2.903-0.671,3.754C1321.364,675.524,1320.515,675.634,1319.756,675.409z"/>
				</g>
				<g>
					<path d="M1228.896,673.903c-0.27-0.106-0.526-0.256-0.759-0.454c-1.135-0.962-1.275-2.665-0.312-3.8
						c7.48-8.816,17.873-6.35,18.312-6.241c1.442,0.36,2.324,1.824,1.964,3.268c-0.358,1.441-1.814,2.32-3.255,1.968
						c-0.341-0.081-7.648-1.707-12.909,4.493C1231.172,674.041,1229.939,674.314,1228.896,673.903z"/>
				</g>
				<path style="fill:#DE623C;" d="M1266.511,695.862c-3.39,4.164-6.314,8.406-9.676,10.963c-1.134,0.862-1.377,2.493-0.571,3.667
					c3.326,4.847,12.093,8.306,17.435,10.04c0.78,0.254,1.31-0.786,0.648-1.27c-5.599-4.1-8.127-7.259-9.227-9.019
					c-0.547-0.875-0.629-1.954-0.246-2.911c0.88-2.199,2.623-6.68,3.745-10.361C1269.007,695.7,1267.35,694.831,1266.511,695.862z"
					/>
				<path style="fill:#FFFFFF;" d="M1300.65,735.039c1.035-1.587-0.309-3.638-2.174-3.301c-4.741,0.855-12.588,2.106-20.123,2.558
					c-7.535,0.452-15.476,0.147-20.285-0.136c-1.892-0.112-2.981,2.084-1.764,3.536c3.744,4.466,11.328,11.128,22.878,10.436
					S1297.466,739.919,1300.65,735.039z"/>
				<path d="M1388.575,685.051c-48.184-2.181-111.555-46.652-119.215-71.07c6.576-30.722,30.799-48.082,59.732-36.668
					C1358.026,588.726,1405.43,645.634,1388.575,685.051z"/>
				<path d="M1280.367,626.328c0,0-28.675,29.144-57.712,35.802c10.163-33.993,17.422-59.765,34.845-68.112
					c17.422-8.348,36.66-9.8,36.66-9.8L1280.367,626.328z"/>
				<g>
					<path style="fill:#F37A50;" d="M1360.73,681.745c-9.03,8.397-10.779,21.194-3.908,28.585
						c6.872,7.389,19.763,6.572,28.793-1.825c9.03-8.397,10.779-21.194,3.908-28.584
						C1382.651,672.532,1369.76,673.348,1360.73,681.745z"/>
					<g>
						<path style="fill:#DE623C;" d="M1368.517,706.978c-0.378-0.149-0.728-0.385-1.017-0.707c-4.159-4.625-5-10.159-2.248-14.803
							c2.817-4.756,8.6-7.328,13.75-6.116c1.45,0.343,2.348,1.794,2.006,3.242c-0.341,1.45-1.793,2.349-3.242,2.007
							c-2.821-0.664-6.28,0.923-7.875,3.615c-1.531,2.585-0.958,5.586,1.618,8.449c0.996,1.107,0.905,2.812-0.202,3.808
							C1370.522,707.178,1369.437,707.339,1368.517,706.978z"/>
					</g>
				</g>
				<path d="M1314.577,683.342c0,4.573-3.707,8.279-8.279,8.279c-4.573,0-8.28-3.707-8.28-8.279c0-4.573,3.707-8.279,8.28-8.279
					C1310.87,675.063,1314.577,678.769,1314.577,683.342z"/>
				<path d="M1254.242,683.342c0,4.573-3.707,8.279-8.279,8.279c-4.573,0-8.28-3.707-8.28-8.279c0-4.573,3.707-8.279,8.28-8.279
					C1250.536,675.063,1254.242,678.769,1254.242,683.342z"/>
			</g>
			<g>
				<path style="fill:#F37A50;" d="M1242.574,1755.146c3.167-31.59-13.131-271.994-13.131-271.994
					c-46.092-211.348-27.987-362.639-27.987-362.639l79.222,5.566l31.224,119.432l-14.81,199.451c0,0,5.559,15.354,8.493,27.631
					c15.906,66.579,0.063,146.146-9.732,199.182c-4.539,24.574-11.599,76.225-11.784,87.964l19.903,25.729
					c0,0-72.031,79.719-83.112,80.219c-21.538,0.973-15.192-20.358-15.192-20.358
					C1235.274,1814.926,1241.667,1764.193,1242.574,1755.146z"/>
				<path style="fill:#E62552;" d="M1305.204,1813.717l-3.963,51.217l-9.206,0.416l-4.656-47.564
					c-24.504,6.254-42.059,50.722-42.059,50.722c-16.877,6.054-59.78,10.206-75.05,2.339c-3.686-14.964,35.464-25.457,35.464-25.457
					c3.537,4.191,24.436,7.398,31.857,2.912c27.328-23.268,40.653-57.1,46.478-88.563
					C1284.068,1759.738,1327.25,1762.75,1305.204,1813.717z"/>
			</g>
			<g>
				<path style="fill:#F37A50;" d="M1269.365,1135.887l111.604-15.373c42.693,96.593,56.61,264.77,68.2,324.68
					c46.521,78.004,61.293,314.546,61.293,314.546l19.904,25.729c0,0-72.031,79.719-83.112,80.219
					c-21.538,0.973-15.192-20.358-15.192-20.358c29.606-30.403,35.377-70.794,37.294-79.683
					c2.881-13.355-90.333-275.77-90.333-275.77l-9.951-24.898c-113.854-188.049-132.536-330.211-132.536-330.211L1269.365,1135.887z
					"/>
				<path style="fill:#E62552;" d="M1531.597,1813.717l-3.963,51.217l-9.206,0.416l-4.657-47.564
					c-24.504,6.254-42.06,50.722-42.06,50.722c-16.877,6.054-59.78,10.206-75.049,2.339c-3.687-14.964,35.463-25.457,35.463-25.457
					c3.537,4.191,24.436,7.398,31.857,2.912c27.328-23.268,40.653-57.1,46.478-88.563
					C1510.462,1759.738,1553.643,1762.75,1531.597,1813.717z"/>
			</g>
			<g>
				<g>
					<g>
						<g>
							<path style="fill:#070635;" d="M1476.855,1434.221c-11.145-37.29-6.295-304.209-104.689-376.791l-169.319,17.841
								c-39.128,63.335-24.774,228.134-11.598,363.761C1270.858,1467.447,1334.155,1478.85,1476.855,1434.221z"/>
						</g>
					</g>
				</g>
			</g>
			<g>
				<g>
					<g>
						<path style="fill:#E62552;" d="M1200.781,1033.49c0-37.079-32.136-92.631-16.731-130.063
							c11.22-30.11,33.263-98.041,57.283-102.627c9.748-1.861,20.445,0.013,33.941-3.719c0,0-7.047,31.446,8.816,32.718
							c30.536,2.449,46.584-36.7,46.584-36.7c16.464-1.574,73.882,15.563,73.846,21.764c-0.179,48.572-14.703,115.956-27.607,168.47
							c-2.394,26.739,3.779,48.362,6.457,63.495c4.889,15.771,12.876,33.18,12.914,36.59c0,0-126.317,40.355-198.333,0.709
							C1197.951,1084.127,1200.781,1058.533,1200.781,1033.49z"/>
					</g>
				</g>
			</g>
			<path style="fill:#FFFFFF;" d="M1284.09,829.799c-2.722,12.703,4.659,27.934,25.941,20.792
				c25.489-8.554,37.395-56.398,37.395-56.398l-15.983-8.658C1331.444,785.536,1319.309,818.583,1284.09,829.799z"/>
			<path style="fill:#FFFFFF;" d="M1284.09,829.799c-3.146,6.543-21.073,23.321-29.569,13.327
				c-8.496-9.994,4.327-43.491,4.327-43.491l16.799-4.8C1275.647,794.835,1267.695,820.706,1284.09,829.799z"/>
			<path style="fill:#C4204A;" d="M1403.655,812.756c0,0,96.467,119.111,81.213,179.361c-42.238,30.947-63.736-5.043-63.736-5.043
				l-56.119-92.039c0,0-23.418-32.067-5.665-63.58C1374.813,804.008,1403.655,812.756,1403.655,812.756z"/>
			<g>
				<path style="fill:#FFFFFF;" d="M1273.277,1082.779h-42.696c-3.483,0-6.367-2.709-6.586-6.186l-6.194-98.591
					c-0.144-2.292,1.676-4.232,3.975-4.232h60.566c2.301,0,4.124,1.945,3.974,4.242l-6.453,98.599
					C1279.635,1080.08,1276.755,1082.779,1273.277,1082.779z"/>
				<path style="fill:#809DF2;" d="M1281.482,1000.512l-4.583,73.381c-0.202,3.227-2.762,5.734-5.849,5.734h-37.917
					c-3.096,0-5.655-2.516-5.849-5.752l-4.292-71.569c7.731-2.753,18.444-4.362,29.007,1.196
					C1262.017,1008.771,1275.879,1003.211,1281.482,1000.512z"/>
			</g>
			<g>
				<path style="fill:#F37A50;" d="M1310.476,1026.971c0,0,66.479-32.024,88.231-44.231c22.769-12.777,50.232-29.744,86.161,9.377
					c-11.084,42.967-64.2,67.451-175.401,65.766C1311.364,1041.879,1310.476,1026.971,1310.476,1026.971z"/>
				<path style="fill:#F37A50;" d="M1310.476,1026.971c-13.406-6.019-15.552-30.024-25.848-24.594
					c-0.526,10.865-0.971,15.315-1.227,21.204c-0.337,7.753-49.427,2.787-63.263-1.052c-11.04,10.689-10.865,23.308-1.401,39.254
					c7.767,13.089,35.165,29.523,90.73-3.9C1313.957,1039.588,1310.476,1026.971,1310.476,1026.971z"/>
			</g>
			<g>
				<path style="fill:#F37A50;" d="M1005.253,1064.415c0,0,103.815-78.93,128.354-83.398c10.904-1.986,22.696,22.599,33.536,49.916
					c-35.703,30.731-87.733,54.579-158.156,64.185C1008.412,1079.014,1005.253,1064.415,1005.253,1064.415z"/>
				<g>
					<g>
						<g>
							<g>
								<path style="fill:#F37A50;" d="M988.37,1116.801c8.344-8.174,13.413-21.345,25.845-22.457l5.755-21.201l-9.364-10.337
									c-36.764-6.563-75.744,23.175-79.254,26.437c-9.118,8.469-13.926,11.885-13.345,13.713
									c0.581,1.83,6.736,11.482,20.398-0.418c17.145-14.936,20.491,8.284-22.959,30.756c-10.879,5.625-21.203,25.383-9.751,25.209
									C918.313,1158.309,950.408,1154,988.37,1116.801z"/>
							</g>
						</g>
					</g>
				</g>
			</g>
		</g>
	</g>
	<g>
		<path style="fill:#FFFFFF;" d="M1230.647,271.241h-213.633c-16.852,0-30.513-13.662-30.513-30.514v-91.163
			c0-16.852,13.661-30.514,30.513-30.514h213.633c16.852,0,30.513,13.661,30.513,30.514v91.163
			C1261.16,257.58,1247.499,271.241,1230.647,271.241z"/>
		<path style="fill:#FFFFFF;" d="M876.922,534.82h277.343c21.878,0,39.613-17.735,39.613-39.613v-118.35
			c0-21.878-17.735-39.612-39.613-39.612H876.922c-21.877,0-39.613,17.734-39.613,39.612v118.35
			C837.309,517.085,855.045,534.82,876.922,534.82z"/>
		<polygon style="fill:#FFFFFF;" points="1067.741,271.241 1067.741,350.361 1018.465,271.241 		"/>
		<path style="fill:#FFFFFF;" d="M887.804,525.969v73.552c0,5.905,7.945,7.807,10.619,2.542l38.657-76.094H887.804z"/>
		<path style="fill:#E3EAFF;" d="M1216.685,180.819h-185.708c-8.997,0-16.29-7.293-16.29-16.29l0,0c0-8.996,7.293-16.29,16.29-16.29
			h185.708c8.997,0,16.29,7.293,16.29,16.29l0,0C1232.975,173.526,1225.682,180.819,1216.685,180.819z"/>
		<path style="fill:#E3EAFF;" d="M1216.685,233.428h-185.708c-8.997,0-16.29-7.294-16.29-16.291l0,0
			c0-8.996,7.293-16.29,16.29-16.29h185.708c8.997,0,16.29,7.294,16.29,16.29l0,0
			C1232.975,226.135,1225.682,233.428,1216.685,233.428z"/>
		<path style="fill:#E3EAFF;" d="M883.804,398.995h260.24c10.008,0,18.121-8.114,18.121-18.122l0,0
			c0-10.008-8.113-18.121-18.121-18.121h-260.24c-10.008,0-18.121,8.113-18.121,18.121l0,0
			C865.683,390.881,873.796,398.995,883.804,398.995z"/>
		<path style="fill:#E3EAFF;" d="M883.804,456.478h260.24c10.008,0,18.121-8.113,18.121-18.122v0
			c0-10.008-8.113-18.121-18.121-18.121h-260.24c-10.008,0-18.121,8.113-18.121,18.121v0
			C865.683,448.365,873.796,456.478,883.804,456.478z"/>
		<path style="fill:#E3EAFF;" d="M881.144,513.963h167.004c8.539,0,15.461-6.922,15.461-15.461v-5.322
			c0-8.538-6.922-15.461-15.461-15.461H881.144c-8.539,0-15.461,6.923-15.461,15.461v5.322
			C865.683,507.041,872.606,513.963,881.144,513.963z"/>
	</g>
	<g>
		<path style="fill:#FFFFFF;" d="M2667.517,605.667h-232.454c-18.336,0-33.201-14.865-33.201-33.202v-99.193
			c0-18.337,14.865-33.202,33.201-33.202h232.454c18.337,0,33.2,14.865,33.2,33.202v99.193
			C2700.717,590.802,2685.854,605.667,2667.517,605.667z"/>
		<path style="fill:#FFFFFF;" d="M2658.396,598.249v61.646c0,4.949-6.66,6.544-8.901,2.131l-32.399-63.778H2658.396z"/>
		<path style="fill:#E3EAFF;" d="M2661.748,491.825H2443.63c-8.388,0-15.188-6.801-15.188-15.189l0,0
			c0-8.387,6.801-15.188,15.188-15.188h218.118c8.389,0,15.188,6.801,15.188,15.188l0,0
			C2676.937,485.024,2670.137,491.825,2661.748,491.825z"/>
		<path style="fill:#E3EAFF;" d="M2661.748,540.005H2443.63c-8.388,0-15.188-6.8-15.188-15.188v0
			c0-8.389,6.801-15.189,15.188-15.189h218.118c8.389,0,15.188,6.8,15.188,15.189v0
			C2676.937,533.205,2670.137,540.005,2661.748,540.005z"/>
		<path style="fill:#E3EAFF;" d="M2663.979,588.185h-139.975c-7.156,0-12.958-5.802-12.958-12.958v-4.459
			c0-7.157,5.802-12.958,12.958-12.958h139.975c7.156,0,12.958,5.802,12.958,12.958v4.459
			C2676.937,582.383,2671.135,588.185,2663.979,588.185z"/>
	</g>
	<g>
		<path style="fill:#FFFFFF;" d="M1024.296,1563.115H828.663c-15.432,0-27.942-12.51-27.942-27.942v-83.481
			c0-15.432,12.51-27.942,27.942-27.942h195.633c15.432,0,27.942,12.511,27.942,27.942v83.481
			C1052.239,1550.605,1039.728,1563.115,1024.296,1563.115z"/>
		<path style="fill:#FFFFFF;" d="M1016.62,1556.871v51.883c0,4.165-5.604,5.506-7.49,1.793l-27.268-53.676H1016.62z"/>
		<path style="fill:#E3EAFF;" d="M1019.442,1467.306H835.873c-7.059,0-12.782-5.724-12.782-12.782l0,0
			c0-7.061,5.723-12.783,12.782-12.783h183.569c7.06,0,12.782,5.723,12.782,12.783l0,0
			C1032.224,1461.582,1026.501,1467.306,1019.442,1467.306z"/>
		<path style="fill:#E3EAFF;" d="M1019.442,1507.854H835.873c-7.059,0-12.782-5.723-12.782-12.782l0,0
			c0-7.06,5.723-12.782,12.782-12.782h183.569c7.06,0,12.782,5.723,12.782,12.782l0,0
			C1032.224,1502.131,1026.501,1507.854,1019.442,1507.854z"/>
		<path style="fill:#E3EAFF;" d="M1021.318,1548.402H903.517c-6.023,0-10.906-4.883-10.906-10.906v-3.752
			c0-6.023,4.883-10.906,10.906-10.906h117.802c6.023,0,10.906,4.883,10.906,10.906v3.752
			C1032.224,1543.52,1027.342,1548.402,1021.318,1548.402z"/>
	</g>
	<g>
		<path style="fill:#FFFFFF;" d="M734.128,286.064c-16.459,0-29.851-13.391-29.851-29.851c0-16.459,13.391-29.851,29.851-29.851
			s29.851,13.392,29.851,29.851C763.978,272.674,750.587,286.064,734.128,286.064z M734.128,234.585
			c-11.926,0-21.629,9.703-21.629,21.629c0,11.926,9.703,21.629,21.629,21.629c11.926,0,21.629-9.703,21.629-21.629
			C755.756,244.288,746.053,234.585,734.128,234.585z"/>
	</g>
	<g>
		<path style="fill:#E3EAFF;" d="M3010.048,773.931c-24.813,0-45.001-20.187-45.001-45.001c0-24.813,20.188-45,45.001-45
			s45.001,20.187,45.001,45C3055.049,753.744,3034.861,773.931,3010.048,773.931z M3010.048,696.323
			c-17.979,0-32.606,14.628-32.606,32.606c0,17.98,14.627,32.607,32.606,32.607s32.606-14.627,32.606-32.607
			C3042.654,710.951,3028.027,696.323,3010.048,696.323z"/>
	</g>
	<g>
		<path style="fill:#FFFFFF;" d="M2399.812,1259.078c-24.413,0-44.274-19.861-44.274-44.275c0-24.412,19.861-44.273,44.274-44.273
			s44.274,19.861,44.274,44.273C2444.086,1239.217,2424.225,1259.078,2399.812,1259.078z M2399.812,1182.725
			c-17.688,0-32.08,14.391-32.08,32.078c0,17.689,14.392,32.08,32.08,32.08s32.079-14.391,32.079-32.08
			C2431.891,1197.115,2417.5,1182.725,2399.812,1182.725z"/>
	</g>
	<g>
		<path style="fill:#FFFFFF;" d="M270.45,1600.137c-24.413,0-44.274-19.86-44.274-44.273c0-24.414,19.861-44.275,44.274-44.275
			s44.274,19.86,44.274,44.275C314.724,1580.276,294.863,1600.137,270.45,1600.137z M270.45,1523.783
			c-17.689,0-32.08,14.391-32.08,32.08s14.391,32.08,32.08,32.08c17.689,0,32.08-14.391,32.08-32.08
			S288.139,1523.783,270.45,1523.783z"/>
	</g>
	<g>
		<path style="fill:#FFFFFF;" d="M2677.105,315.581c-24.414,0-44.275-19.862-44.275-44.274c0-24.414,19.861-44.274,44.275-44.274
			c24.412,0,44.274,19.861,44.274,44.274C2721.38,295.719,2701.518,315.581,2677.105,315.581z M2677.105,239.227
			c-17.689,0-32.08,14.391-32.08,32.08c0,17.689,14.391,32.08,32.08,32.08c17.688,0,32.08-14.391,32.08-32.08
			C2709.186,253.617,2694.794,239.227,2677.105,239.227z"/>
	</g>
	<path style="fill:#FFFFFF;" d="M968.879,1238.949c0,13.961-11.317,25.277-25.277,25.277c-13.961,0-25.277-11.316-25.277-25.277
		c0-13.96,11.316-25.276,25.277-25.276C957.563,1213.673,968.879,1224.989,968.879,1238.949z"/>
	<circle style="fill:#FFFFFF;" cx="679.449" cy="344.683" r="25.277"/>
	<path style="fill:#FFFFFF;" d="M2488.4,1314.213c0,13.959-11.316,25.276-25.277,25.276c-13.96,0-25.277-11.317-25.277-25.276
		c0-13.961,11.317-25.277,25.277-25.277C2477.084,1288.936,2488.4,1300.252,2488.4,1314.213z"/>
	<path style="fill:#FFFFFF;" d="M1426.221,365.183c0,13.961-11.317,25.278-25.277,25.278c-13.96,0-25.277-11.317-25.277-25.278
		c0-13.96,11.317-25.277,25.277-25.277C1414.904,339.905,1426.221,351.223,1426.221,365.183z"/>
	<path style="fill:#FFFFFF;" d="M301.445,1201.063c0,13.96-11.317,25.276-25.277,25.276c-13.96,0-25.277-11.316-25.277-25.276
		c0-13.961,11.317-25.277,25.277-25.277C290.129,1175.785,301.445,1187.101,301.445,1201.063z"/>
	<path style="fill:#E3EAFF;" d="M3010.561,809.702c0,13.961-11.316,25.277-25.277,25.277c-13.96,0-25.277-11.316-25.277-25.277
		c0-13.96,11.317-25.277,25.277-25.277C2999.244,784.424,3010.561,795.741,3010.561,809.702z"/>
	<g>
		<g>
			<g>
				<g>
					<g>
						<path style="fill:#F37A50;" d="M2544.749,817.85c19.079-19.25,6.563-38.986,6.563-38.986
							c10.47-2.247,65.704,81.426,89.521,134.596c41.543-41.872,114.745-98.415,134.539-101.712c0,0,26.703-7.177,36.299,25.107
							c8.564,28.817-24.837,49.236-24.837,49.236S2643.952,986.967,2622.821,978C2589.938,964.047,2560.18,843.985,2544.749,817.85z
							"/>
					</g>
				</g>
			</g>
			<g>
				<g>
					<g>
						<g>
							<path style="fill:#F37A50;" d="M2514.916,815.47c11.66,0.71,26.982-5.052,31.475,5.4l22.106-11.219l1.393-13.877
								c-19.772-31.682-67.971-40.672-72.743-41.091c-12.397-1.089-18.154-2.367-19.123-0.711
								c-0.968,1.658-4.005,12.696,13.984,14.856c22.576,2.712,7.588,20.759-38.212,3.579c-11.468-4.301-33.05,1.282-25.244,9.663
								C2437.153,791.304,2461.865,812.233,2514.916,815.47z"/>
						</g>
					</g>
				</g>
			</g>
		</g>
		<path style="fill:#201D40;" d="M2864.02,552.679c31.064-31.814,94.211-36.713,105.871,9.518
			c11.662,46.232,10.494,77.532,68.27,66.845c46.009-8.511,96.134,30.273,99.984,95.685c4.927,83.685-54.984,54.537-39.105,95.081
			c15.879,40.544,27.011,81.962-32.729,86.852c-59.74,4.891-109.158-42.461-106.171-110.901c2.988-68.442-39.09-40.899-53.75-73.795
			C2885.541,675.188,2864.02,552.679,2864.02,552.679z"/>
		<g>
			<path style="fill:#F37A50;" d="M2719.09,1819.02l-26.941-106.111l66.844-9.199c2.293,50.184,6.046,99.592,5.719,112.975
				L2719.09,1819.02z"/>
			<path style="fill:#F37A50;" d="M2878.589,1703.099h69.792c-2.293,16.728-11.446,107.29-11.446,107.29
				c-5.898,13.383-57.909,10.328-57.909,2.8C2882.958,1796.879,2878.917,1705.189,2878.589,1703.099z"/>
			<path style="fill:#C4204A;" d="M2764.469,1744.572l-68.828,10.162l-47.727-285.408c9.83-108.314,105.18-338.74,105.18-338.74
				l107.475,37.639l2.621,101.621l-129.428,219.135C2750.633,1531.359,2762.174,1668.378,2764.469,1744.572z"/>
			<path style="fill:#E62552;" d="M2817.668,1138.219c0.983-6.69,1.311-8.781,6.881-12.127l103.215-29.273l24.574,24.255
				c23.265,84.476,8.848,201.99-9.502,295.248c26.869,80.712,16.358,247.102,5.545,325.304h-73.396
				c-4.26-52.274-2.924-149.242-3.252-196.08l0,0c-9.502-37.639-18.676-77.785-26.868-120.023
				c-10.485-53.947-23.592-106.223-27.196-155.151C2814.391,1223.951,2813.408,1174.186,2817.668,1138.219z"/>
		</g>
		<path style="fill:#F37A50;" d="M2923.582,672.864c0.391,56.102-35.012,101.828-79.072,102.135
			c-44.063,0.307-80.098-44.923-80.488-101.023c-0.391-56.1,35.011-101.828,79.072-102.134
			C2887.154,571.535,2923.19,616.764,2923.582,672.864z"/>
		<path style="fill:#F37A50;" d="M2896.512,728.669l-64.077,36.39c0,0-5.687,25.945-8.524,34.362
			c-5.855,17.372,16.583,24.962,35.553,14.148c18.969-10.813,31.251-25.28,31.251-25.28L2896.512,728.669z"/>
		<path style="fill:#2C2858;" d="M2761.793,662.994c15.275-1.393,100.301-23.35,110.131-38.712
			c-0.803,36.486,54.167,78.117,61.535,67.406c25.74-67.454,6.98-125.207-68.499-140.267
			C2761.457,530.77,2761.793,662.994,2761.793,662.994z"/>
		<path d="M2858.483,691.539c-2.597,4.133-8.052,5.379-12.184,2.783c-4.133-2.596-5.378-8.051-2.782-12.185
			c2.596-4.132,8.051-5.378,12.184-2.782C2859.834,681.952,2861.08,687.406,2858.483,691.539z"/>
		<path d="M2796.717,690.708c-2.438,3.879-7.558,5.048-11.438,2.611c-3.879-2.436-5.048-7.557-2.611-11.436
			c2.438-3.879,7.557-5.049,11.437-2.612S2799.153,686.828,2796.717,690.708z"/>
		<g>
			<path style="fill:#2C2858;" d="M2773.88,673.19c-0.313-0.141-0.605-0.339-0.864-0.599c-1.263-1.266-1.244-3.482,0.039-4.951
				c9.975-11.406,22.226-8.09,22.742-7.944c1.697,0.483,2.601,2.398,2.009,4.275c-0.59,1.873-2.439,3.001-4.137,2.529
				c-0.401-0.108-9.026-2.299-16.042,5.722C2776.606,673.39,2775.092,673.733,2773.88,673.19z"/>
		</g>
		<g>
			<path style="fill:#2C2858;" d="M2867.076,674.819c0.313-0.141,0.605-0.34,0.864-0.599c1.263-1.266,1.245-3.481-0.04-4.95
				c-9.975-11.407-22.225-8.091-22.741-7.945c-1.697,0.483-2.601,2.397-2.009,4.275c0.59,1.872,2.439,3.002,4.137,2.529
				c0.402-0.108,9.027-2.299,16.041,5.723C2864.35,675.019,2865.864,675.363,2867.076,674.819z"/>
		</g>
		<path style="fill:#DE623C;" d="M2802.997,696.692c-2.592,5.447-4.653,10.853-7.642,14.538c-1.008,1.242-0.84,3.085,0.352,4.153
			c4.918,4.404,15.404,5.846,21.693,6.317c0.919,0.069,1.221-1.206,0.37-1.558c-7.199-2.985-10.798-5.759-12.467-7.387
			c-0.829-0.81-1.206-1.964-1.042-3.111c0.375-2.633,1.086-7.986,1.331-12.3C2805.678,695.854,2803.639,695.345,2802.997,696.692z"
			/>
		<path style="fill:#F37A50;" d="M2902.789,695.174c-9.199,9.455-10.387,23.223-2.648,30.752c7.736,7.53,21.468,5.969,30.668-3.485
			c9.201-9.455,10.387-23.223,2.65-30.753C2925.721,684.158,2911.99,685.719,2902.789,695.174z"/>
		<g>
			<path style="fill:#DE623C;" d="M2908.974,718.126c-0.367-0.231-0.688-0.548-0.929-0.944c-3.454-5.688-3.238-11.673,0.576-16.009
				c3.906-4.44,10.496-5.996,15.669-3.699c1.456,0.648,2.112,2.351,1.466,3.807c-0.646,1.456-2.352,2.112-3.808,1.465
				c-2.834-1.258-6.785-0.276-8.996,2.237c-2.123,2.414-2.114,5.683,0.023,9.204c0.827,1.362,0.394,3.136-0.968,3.962
				C2911.043,718.736,2909.869,718.689,2908.974,718.126z"/>
		</g>
		<path style="fill:#3F964F;" d="M2749.003,1138.25c111.969,43.043,209.589,11.237,209.589,11.237
			c-0.338-14.886,1.775-61.819-20.876-113.15c5.494-43.476,3.396-108.794,5.115-133.854c-13.336-67.231-7.003-72.918,5.029-104.592
			l-41.896-12.368l-75.41,26.594l-5.601-18.185c0,0-47.065,14.267-57.009,19.761l-18.078,71.624l3.867,158.386
			C2753.734,1043.703,2753.567,1128.552,2749.003,1138.25z"/>
		<g>
			<path style="fill:#DE623C;" d="M2823.135,750.935c1.852,0.183,3.707,0.19,5.568,0.02c13.729-1.26,22.393-11.81,22.755-12.257
				c1.119-1.387,0.903-3.418-0.483-4.538c-1.385-1.118-3.411-0.903-4.531,0.477l0,0c-0.072,0.089-7.402,8.92-18.393,9.897
				c-7.16,0.638-14.439-2.166-21.635-8.333c-1.353-1.159-3.39-1.003-4.549,0.351c-1.16,1.353-1.003,3.39,0.35,4.549
				C2809.029,746.938,2816.044,750.232,2823.135,750.935z"/>
		</g>
		<g>
			<path style="fill:#2C2858;" d="M2735.35,1817.309c-6.99-18.355-21.934-20.396-21.934-20.396
				c-29.047,38.743-101.718,21.615-99.357,74.018c108.476-0.673,155.725,0.295,155.725,0.295
				c-0.143-12.036-3.115-47.544-5.617-58.727l-5.652,1.004L2735.35,1817.309z"/>
		</g>
		<g>
			<path style="fill:#2C2858;" d="M2865.144,1871.347c0,0,10.159-39.042,10.927-43.216c0.873-4.746,3.432-15.965,3.954-21.718
				c0.129-1.417,15.081-10.562,26.497-10.542c15.465,0.023,29.56,8.983,29.844,10.675c1.826,10.841,1.881,23.587,4.838,34.147
				c2.199,7.852,8.608,30.236,8.608,30.236L2865.144,1871.347z"/>
		</g>
		<path style="fill:#201D40;" d="M2911.051,787.023c-16.184,25.953-50.467,97.707-47.031,191.541
			c3.438,93.834,26.922,207.838,16.09,312.359c55.135,4.895,107.759-2.176,107.759-2.176
			c-5.874-61.674-40.008-490.857-40.008-490.857C2930.578,792.788,2911.051,787.023,2911.051,787.023z"/>
		<g>
			<path style="fill:#F37A50;" d="M2947.86,797.891c0,0,98.317,43.625,153.256,157.827c-32.085,45.167-66.699,18.305-66.699,18.305
				l-91.586-71.539c0,0-21.886-30.365-17.007-64.392C2930.555,805.096,2947.86,797.891,2947.86,797.891z"/>
			<path style="fill:#F37A50;" d="M2981.012,1071.783l59.241-98.621c0,0,7.964-36.425,60.863-17.444
				c2.561,28.442-10.377,80.991-89.326,135.29C2995.98,1085.881,2981.012,1071.783,2981.012,1071.783z"/>
			<g>
				<path style="fill:#F37A50;" d="M3011.79,1091.008c-13.157,28.551-36.61,25.141-43.335,23.262
					c-7.33-2.049-17.396-1.865-21.209,3.223c-3.922,5.234-5.967,11.072-11.201,9.26c-7.303-2.527-0.193-21.382,14.746-22.147
					c0,0-11.729,0.397-15.598,6.342c-4.236,6.512-7.374,11.35-11.836,10.674c-2.393-0.363-4.551-3.059-3.754-6.311
					c-2.789,2.355-9.136,4.374-9.691-0.064c-1.762-14.064,7.947-32.234,28.188-36.514c-24.14-3.668-25.862,17.809-33.409,18.217
					c-4.537,0.244-4.935-5.355-3.999-8.973c2.999-11.601,12.573-20.408,24.237-23.15c11.664-2.744,29.568,0.545,36.287,10.468
					c0,0,14.105,5.12,19.795-3.511L3011.79,1091.008z"/>
			</g>
		</g>
		<path style="fill:#0E6A41;" d="M2891.401,777.134l29.544,12.548c-3.118,35.478-82.504,56.679-82.504,56.679l-7.883-34.244
			L2891.401,777.134z"/>
		<path style="fill:#201D40;" d="M2801.09,799.21c-14.516,46.373-36.407,111.073-30.438,180.474
			c5.971,69.4,13.178,181.382-21.649,299.794c-25.872,4.975-61.103,1.225-61.103,1.225s50.971-173.895,48.711-251.176
			c-2.51-85.778,1.419-162.955,22.513-212.06C2774.986,810.636,2801.09,799.21,2801.09,799.21z"/>
		<path style="fill:#0E6A41;" d="M2830.559,812.117l-23.376,25.974c0,0-20.211-20.906-12.896-33.827
			c7.314-12.921,33.373-21.637,33.373-21.637L2830.559,812.117z"/>
	</g>
	<g>
		<g>
			<path style="fill:#809DF2;" d="M1870.416,1185.156h-210.867c-42.069,0-76.172-34.104-76.172-76.172V770.593
				c0-42.067,34.103-76.17,76.172-76.17h210.867c42.068,0,76.172,34.103,76.172,76.17v338.391
				C1946.588,1151.053,1912.484,1185.156,1870.416,1185.156z"/>
			<g>
				<path style="fill:#768FDB;" d="M1945.076,800.806h-360.188c-6.57,0-11.896-5.326-11.896-11.896l0,0
					c0-6.57,5.326-11.896,11.896-11.896h360.188c6.57,0,11.896,5.326,11.896,11.896l0,0
					C1956.973,795.48,1951.646,800.806,1945.076,800.806z"/>
				<path style="fill:#768FDB;" d="M1945.076,1102.564h-360.188c-6.57,0-11.896-5.326-11.896-11.897l0,0
					c0-6.569,5.326-11.895,11.896-11.895h360.188c6.57,0,11.896,5.326,11.896,11.895l0,0
					C1956.973,1097.238,1951.646,1102.564,1945.076,1102.564z"/>
			</g>
			<rect x="1715.967" y="1181.584" style="fill:#809DF2;" width="98.03" height="18.197"/>
		</g>
		<g>
			<path style="fill:#B4C2F0;" d="M1915.96,1871.174h-297.172c-16.716,0-30.268-13.551-30.268-30.268v-610.854
				c0-16.717,13.551-30.268,30.268-30.268h297.172c16.716,0,30.268,13.551,30.268,30.268v610.854
				C1946.228,1857.623,1932.676,1871.174,1915.96,1871.174z"/>
			<path style="fill:#768FDB;" d="M1889.836,1517.884h-242.172c-9.384,0-16.991-7.606-16.991-16.991v-211.488
				c0-9.384,7.607-16.99,16.991-16.99h242.172c9.384,0,16.991,7.607,16.991,16.99v211.488
				C1906.827,1510.277,1899.22,1517.884,1889.836,1517.884z"/>
			<path style="fill:#B4C2F0;" d="M1887.248,1306.812v176.681c0,9.379-7.611,16.989-16.99,16.989h-203.01
				c-9.391,0-16.99-7.61-16.99-16.989v-176.681c0-9.39,7.6-16.989,16.99-16.989h203.01
				C1879.637,1289.822,1887.248,1297.422,1887.248,1306.812z"/>
			<g>
				<path style="fill:#2C2858;" d="M1734.711,1355.622c0,12.337-10.002,22.339-22.339,22.339s-22.339-10.002-22.339-22.339
					c0-12.338,10.002-22.34,22.339-22.34S1734.711,1343.284,1734.711,1355.622z"/>
				<path style="fill:#2C2858;" d="M1712.372,1397.731L1712.372,1397.731c-4.567,0-8.272-3.703-8.272-8.272v-20.16
					c0-4.568,3.705-8.271,8.272-8.271l0,0c4.568,0,8.271,3.703,8.271,8.271v20.16
					C1720.643,1394.028,1716.941,1397.731,1712.372,1397.731z"/>
				<path style="fill:#FFFFFF;" d="M1722.582,1309.521v27.32c0,4.52-3.66,8.18-8.17,8.18h-4.07c-4.51,0-8.18-3.66-8.18-8.18v-27.32
					c0-4.52,3.67-8.18,8.18-8.18h4.07C1718.922,1301.342,1722.582,1305.002,1722.582,1309.521z"/>
				<path style="fill:#E62552;" d="M1722.582,1309.521v9.98h-20.42v-9.98c0-4.52,3.67-8.18,8.18-8.18h4.07
					C1718.922,1301.342,1722.582,1305.002,1722.582,1309.521z"/>
			</g>
			<g>
				<path style="fill:#2C2858;" d="M1832.393,1355.622c0,12.337-10.002,22.339-22.339,22.339c-12.337,0-22.339-10.002-22.339-22.339
					c0-12.338,10.002-22.34,22.339-22.34C1822.391,1333.282,1832.393,1343.284,1832.393,1355.622z"/>
				<path style="fill:#2C2858;" d="M1810.054,1397.731L1810.054,1397.731c-4.568,0-8.271-3.703-8.271-8.272v-20.16
					c0-4.568,3.703-8.271,8.271-8.271l0,0c4.568,0,8.271,3.703,8.271,8.271v20.16
					C1818.325,1394.028,1814.622,1397.731,1810.054,1397.731z"/>
				<path style="fill:#FFFFFF;" d="M1820.264,1309.521v27.32c0,4.52-3.66,8.18-8.17,8.18h-4.07c-4.51,0-8.18-3.66-8.18-8.18v-27.32
					c0-4.52,3.67-8.18,8.18-8.18h4.07C1816.604,1301.342,1820.264,1305.002,1820.264,1309.521z"/>
				<path style="fill:#809DF2;" d="M1820.264,1309.521v9.98h-20.42v-9.98c0-4.52,3.67-8.18,8.18-8.18h4.07
					C1816.604,1301.342,1820.264,1305.002,1820.264,1309.521z"/>
			</g>
			<path style="fill:#2C2858;" d="M1887.248,1483.492c0,9.379-7.611,16.989-16.99,16.989h-203.01c-9.391,0-16.99-7.61-16.99-16.989
				H1887.248z"/>
			<path style="fill:#768FDB;" d="M1896.467,1590.285h-257.375c-5.809,0-10.517-4.709-10.517-10.518l0,0
				c0-5.809,4.709-10.518,10.517-10.518h257.375c5.809,0,10.518,4.709,10.518,10.518l0,0
				C1906.984,1585.576,1902.275,1590.285,1896.467,1590.285z"/>
		</g>
		<circle style="fill:#9EB7FF;" cx="1704.683" cy="1034.586" r="12.729"/>
		<path style="fill:#9EB7FF;" d="M1682.733,984.104c1.707,0,3.314,0.664,4.521,1.872c2.492,2.494,2.492,6.551,0,9.044
			c-1.208,1.208-2.814,1.873-4.521,1.873c-1.709,0-3.315-0.665-4.521-1.873c-2.494-2.494-2.494-6.55-0.001-9.044
			C1679.418,984.769,1681.024,984.104,1682.733,984.104L1682.733,984.104z M1682.733,979.967c-2.695,0-5.391,1.029-7.447,3.084
			c-4.113,4.113-4.113,10.781,0,14.894c2.057,2.057,4.752,3.086,7.447,3.086c2.695,0,5.39-1.029,7.446-3.086
			c4.112-4.113,4.112-10.781,0-14.894C1688.122,980.996,1685.428,979.967,1682.733,979.967L1682.733,979.967z"/>
		<path style="fill:#9EB7FF;" d="M1792.734,964.304c4.971,4.971,4.971,13.031,0,18.002c-4.972,4.971-13.031,4.971-18.002,0
			c-4.971-4.971-4.971-13.031,0-18.002S1787.763,959.333,1792.734,964.304z"/>
		<path style="fill:#9EB7FF;" d="M1836.994,869.823c4.971,4.972,4.971,13.031,0,18.003c-4.971,4.971-13.031,4.971-18.002,0
			s-4.971-13.031,0-18.003C1823.963,864.852,1832.024,864.852,1836.994,869.823z"/>
		<path style="fill:#9EB7FF;" d="M1803.369,1148.947c3.497,3.496,3.497,9.167,0,12.664c-3.498,3.498-9.168,3.498-12.666,0
			c-3.497-3.497-3.497-9.168,0-12.664C1794.201,1145.449,1799.871,1145.449,1803.369,1148.947z"/>
		<path style="fill:#9EB7FF;" d="M1822.057,1115.473c3.498,3.496,3.498,9.168,0,12.664c-3.496,3.498-9.168,3.498-12.664,0
			c-3.498-3.496-3.498-9.168,0-12.664C1812.889,1111.976,1818.561,1111.976,1822.057,1115.473z"/>
		<path style="fill:#9EB7FF;" d="M1724.526,747.556c3.497,3.498,3.497,9.168,0,12.665c-3.497,3.498-9.167,3.498-12.665,0
			c-3.498-3.497-3.498-9.167,0-12.665C1715.359,744.059,1721.029,744.059,1724.526,747.556z"/>
	</g>
	<g>
		<g>
			<path style="fill:#0E6A41;" d="M2277.713,1781.078c20.774,87.24,95.033,39.258,79.504,94.395
				c-1.145,4.064-5.008,6.781-9.229,6.942l-43.604,1.667c-4.208,0.162-8.354-1.039-11.829-3.418
				c-23.005-15.75-38.612-37.935-88.297-40.628c0.378-21.212-0.587-51.5,6.423-62.327L2277.713,1781.078z"/>
			<path style="fill:#201D40;" d="M2162.801,1168.887c0,0,126.816,193.418,144.322,253.58s-19.116,162.106-12.492,367.556
				c-39.635,10.29-92.482,1.444-92.482,1.444s-31.807-257.7,5.605-318.551c-56.057-85.538-196.861-272.281-196.861-272.281
				L2162.801,1168.887z"/>
		</g>
		<g>
			<path style="fill:#0E6A41;" d="M2092.473,1809.2c32.269,43.923,112.812,17.946,109.58,76.899
				c-122.078-1.943-172.824-1.68-172.824-1.68c0.293-13.543,3.019-45.674,5.957-58.232L2092.473,1809.2z"/>
			<path style="fill:#2C2858;" d="M2130.299,1129.789c0,0,40.438,315.555,31.104,377.513
				c-9.336,61.958-38.256,110.455-39.271,316.009c-39.99,8.809-101.104,16.726-101.104,16.726s-25.77-247.924,27.234-316.187
				c-15.021-101.161-86.609-355.607-86.609-355.607L2130.299,1129.789z"/>
		</g>
		<g>
			<path style="fill:#C4204A;" d="M2337.464,990.875l49.298-55.282c1.074-1.192,2.596-1.885,4.2-1.914l40.593-0.241
				c1.156-0.021,4.736,6.398,3.959,7.255l-34.773,30.902c-0.16,0.178-0.365,0.308-0.594,0.377l-59.636,22.125
				C2339.231,994.487,2336.568,991.869,2337.464,990.875z"/>
			<path style="fill:#E62552;" d="M2341.229,994.581l46.967-52.119c1.074-1.192,2.595-1.886,4.199-1.915l41.848-0.75
				c1.156-0.021,1.779,1.35,1.002,2.207l-33.07,36.461c-0.16,0.178-0.366,0.307-0.595,0.377l-58.987,17.886
				C2341.313,997.115,2340.333,995.573,2341.229,994.581z"/>
			<path style="fill:#F37A50;" d="M2248.432,1042.117l33.967-16.65c0,0,33.504-33.907,38.479-41.483
				c7.453-3.772,21.553-13.268,24.723-13.629c3.172-0.362,9.666,0.615,9.666,0.615l-15.727,17.89c0,0,7.47,1.482,16.998-4.571
				c9.529-6.053,26.363-22.286,34.607-19.14c2.924,2.586,2.924,2.586,2.924,2.586s5.205-5.56,10.113-3.491
				c4.909,2.066-4.851,26.544-32.549,52.487c-1.836,6.926-10.961,19.065-10.961,19.065l-56.002,19.67L2248.432,1042.117z"/>
			<path style="fill:#C4204A;" d="M2395.846,950.325c-1.989,1.989-4.85,2.355-6.388,0.817c-1.538-1.539-1.173-4.398,0.817-6.388
				c1.988-1.99,4.849-2.355,6.387-0.816C2398.201,945.476,2397.836,948.335,2395.846,950.325z"/>
			<path style="fill:#F37A50;" d="M2090.266,792.351c10.077,13.062-68.862,27.267-79.443,0.121
				c-10.582-27.146,7.59-101.814,7.59-101.814l71.974,15.278C2090.386,705.935,2077.149,775.351,2090.266,792.351z"/>
			<g>
				<path style="fill:#F37A50;" d="M2002.672,629.71c-6.06,57.746,25.793,108.417,71.146,113.175
					c45.354,4.76,87.033-38.194,93.093-95.94s-25.794-108.417-71.147-113.176C2050.41,529.009,2008.73,571.964,2002.672,629.71z"/>
				<path d="M2140.118,663.947c1.604,4.468,6.526,6.791,10.995,5.186c4.468-1.603,6.789-6.525,5.186-10.994
					c-1.604-4.468-6.526-6.79-10.994-5.186C2140.836,654.556,2138.514,659.479,2140.118,663.947z"/>
				<path d="M2083.752,651.635c1.736,4.837,7.064,7.35,11.902,5.614c4.836-1.737,7.35-7.065,5.613-11.901
					c-1.736-4.837-7.064-7.351-11.902-5.615C2084.529,641.469,2082.016,646.798,2083.752,651.635z"/>
				<path style="fill:#DE623C;" d="M2123.704,662.154c1.821,13.533,4.354,30.185,4.354,30.185s-8.894,9.379-23.643,2.896
					c7.376,0.242,15.41-1.16,16.625-10.587C2122.256,675.22,2123.704,662.154,2123.704,662.154z"/>
				<g>
					<path style="fill:#201D40;" d="M2142.641,644.319c0.966,0.58,2.203,0.648,3.264,0.077c0.104-0.055,3.687-1.882,7.041-0.602
						c2.365,0.902,4.259,3.226,5.625,6.904c0.635,1.707,2.533,2.577,4.24,1.943c1.707-0.635,2.577-2.534,1.943-4.241
						c-2.073-5.578-5.285-9.212-9.547-10.802c-6.239-2.33-12.198,0.862-12.449,1c-1.598,0.873-2.185,2.877-1.311,4.475
						C2141.738,643.607,2142.155,644.028,2142.641,644.319z"/>
				</g>
				<g>
					<path style="fill:#201D40;" d="M2099.758,634.923c-1.102,0.229-2.293-0.113-3.105-1.002c-0.082-0.086-2.862-2.99-6.451-2.885
						c-2.53,0.073-5.084,1.645-7.585,4.669c-1.161,1.403-3.239,1.599-4.644,0.438c-1.402-1.161-1.6-3.239-0.438-4.643
						c3.793-4.584,8.021-6.959,12.57-7.059c6.658-0.146,11.234,4.83,11.426,5.042c1.222,1.35,1.116,3.435-0.235,4.657
						C2100.846,634.547,2100.313,634.808,2099.758,634.923z"/>
				</g>
				<path style="fill:#201D40;" d="M2019.531,666.386c29.879-25.011,21.628-63.229,21.628-63.229
					c14.489,0.949,18.549,7.144,18.549,7.144c11.649-13.379,8.813-25.978,8.813-25.978c31.402-3.42,40.594,18.79,64.563,31.897
					c32.822,17.949,79.959,15.624,95.566-26.14c2.259-6.046-3.482-11.9-9.596-9.83c-5.67,1.92-12.751,2.802-20.63,0.44
					c0,0,9.591-6.315,13.059-17.692c1.913-6.276-4.587-11.691-10.547-8.95c-8.935,4.109-24.024,6.201-46.948-4.825
					c-15.258-7.339-45.109-42.984-69.378-44.131c-19.841-0.938-38.997,11.002-51.542,32.096c0,0-47.331-7.63-65.598,41.799
					c-17.947,48.564,49.326,123.588,49.326,123.588S2011.635,674.076,2019.531,666.386z"/>
				<path style="fill:#FFFFFF;" d="M2120.05,717.32c1.87-1.21,1.405-4.055-0.759-4.584c-5.502-1.346-14.531-3.753-22.842-6.868
					c-8.313-3.116-16.697-7.237-21.729-9.84c-1.979-1.024-4.199,0.814-3.586,2.956c1.889,6.586,6.854,17.369,19.594,22.144
					C2103.467,725.905,2114.297,721.042,2120.05,717.32z"/>
				<g>
					<path style="fill:#F37A50;" d="M2040.805,632.371c9.721,9.589,11.238,23.81,3.391,31.765
						c-7.848,7.954-22.089,6.628-31.808-2.961c-9.719-9.589-11.236-23.811-3.389-31.765
						C2016.846,621.456,2031.086,622.781,2040.805,632.371z"/>
					<g>
						<path style="fill:#DE623C;" d="M2031.362,660.042c0.423-0.152,0.817-0.401,1.148-0.749c4.755-4.982,5.866-11.079,2.973-16.31
							c-2.962-5.356-9.278-8.392-15.017-7.218c-1.616,0.331-2.657,1.907-2.327,3.523c0.33,1.615,1.908,2.657,3.523,2.327
							c3.145-0.643,6.92,1.229,8.597,4.259c1.61,2.912,0.876,6.214-2.067,9.299c-1.139,1.192-1.094,3.083,0.1,4.22
							C2029.137,660.199,2030.332,660.412,2031.362,660.042z"/>
					</g>
				</g>
			</g>
			<path style="fill:#3F964F;" d="M2177.998,1192.055c-56.302,11.488-157.527,31.324-211.064,10.451
				c-20.259-29.088-25.392-193.567-25.392-193.567c-5.859-169.299,14.443-194.42,60.23-251.146
				c19.211,8.829,67.305,16.354,88.447,16.518c0,0,47.91,66.518,57.256,114.818c9.479,48.976,10.551,136.053,11.432,185.93
				C2159.885,1130.451,2170.826,1157.162,2177.998,1192.055z"/>
			<path style="fill:#0E6A41;" d="M1995.1,809.187c-32.933,64.11-25.477,135.106,70.282,274.876
				c67.062-5.85,80.212-61.742,80.212-61.742s-18.426-69.395-42.36-156.689C2079.299,778.339,2009.512,781.131,1995.1,809.187z"/>
			<path style="fill:#0E6A41;" d="M2287.862,1008.938l-143.585,11.458c0,0-61.578-11.232-78.896,63.666
				c30.82,23.994,110.376,32.994,240.865-15.449C2292.438,1049.818,2287.862,1008.938,2287.862,1008.938z"/>
			<polygon style="fill:#FFFFFF;" points="2089.788,769.561 2091.152,808.181 1994.006,767.449 2005.771,736.209 			"/>
		</g>
	</g>
	<g>
		<ellipse style="fill:#FFFFFF;" cx="2353.252" cy="317.551" rx="132.098" ry="90.27"/>
		<path style="fill:#FFFFFF;" d="M2272.89,422.952c0,12.13-9.833,21.964-21.964,21.964c-12.13,0-21.963-9.834-21.963-21.964
			c0-12.13,9.833-21.963,21.963-21.963C2263.057,400.989,2272.89,410.822,2272.89,422.952z"/>
		<path style="fill:#FFFFFF;" d="M2225.059,455.166c0,9.434-7.648,17.083-17.084,17.083c-9.434,0-17.082-7.649-17.082-17.083
			c0-9.435,7.648-17.083,17.082-17.083C2217.41,438.082,2225.059,445.731,2225.059,455.166z"/>
	</g>
	<g>
		
			<ellipse transform="matrix(0.7071 -0.7071 0.7071 0.7071 258.9828 1349.7245)" style="fill:#B4C2F0;" cx="1758.753" cy="362.242" rx="151.839" ry="151.839"/>
		<path style="fill:#E3EAFF;" d="M1776.246,362.242c0,9.661-7.832,17.493-17.493,17.493c-9.661,0-17.493-7.832-17.493-17.493
			c0-9.66,7.832-17.492,17.493-17.492C1768.414,344.75,1776.246,352.582,1776.246,362.242z"/>
		<path style="fill:#E3EAFF;" d="M1756.782,361.126L1756.782,361.126c-4.88,0-8.835-3.955-8.835-8.835V251.4
			c0-4.879,3.955-8.835,8.835-8.835l0,0c4.879,0,8.835,3.955,8.835,8.835v100.891
			C1765.617,357.171,1761.661,361.126,1756.782,361.126z"/>
		<path style="fill:#E3EAFF;" d="M1750.387,356.501l0.809-1.109c2.653-3.635,7.751-4.431,11.385-1.778l67.157,49.02
			c3.635,2.653,4.43,7.751,1.777,11.385l-0.811,1.11c-2.652,3.634-7.75,4.43-11.385,1.777l-67.156-49.02
			C1748.529,365.232,1747.733,360.135,1750.387,356.501z"/>
	</g>
</g>
</svg>
