<?xml version="1.0" standalone="no"?>
<svg xmlns:xlink="http://www.w3.org/1999/xlink" id="wave" style="transform:rotate(0deg); transition: 0.3s" viewBox="0 0 1440 450" version="1.1" xmlns="http://www.w3.org/2000/svg"><defs><linearGradient id="sw-gradient-0" x1="0" x2="0" y1="1" y2="0"><stop stop-color="rgba(54, 177, 253, 1)" offset="0%"/><stop stop-color="rgba(2, 51, 96, 1)" offset="100%"/></linearGradient></defs><path style="transform:translate(0, 0px); opacity:1" fill="url(#sw-gradient-0)" d="M0,315L80,270C160,225,320,135,480,135C640,135,800,225,960,262.5C1120,300,1280,285,1440,232.5C1600,180,1760,90,1920,105C2080,120,2240,240,2400,240C2560,240,2720,120,2880,60C3040,0,3200,0,3360,30C3520,60,3680,120,3840,165C4000,210,4160,240,4320,262.5C4480,285,4640,300,4800,270C4960,240,5120,165,5280,142.5C5440,120,5600,150,5760,135C5920,120,6080,60,6240,37.5C6400,15,6560,30,6720,90C6880,150,7040,255,7200,285C7360,315,7520,270,7680,210C7840,150,8000,75,8160,82.5C8320,90,8480,180,8640,195C8800,210,8960,150,9120,157.5C9280,165,9440,240,9600,240C9760,240,9920,165,10080,180C10240,195,10400,300,10560,307.5C10720,315,10880,225,11040,195C11200,165,11360,195,11440,210L11520,225L11520,450L11440,450C11360,450,11200,450,11040,450C10880,450,10720,450,10560,450C10400,450,10240,450,10080,450C9920,450,9760,450,9600,450C9440,450,9280,450,9120,450C8960,450,8800,450,8640,450C8480,450,8320,450,8160,450C8000,450,7840,450,7680,450C7520,450,7360,450,7200,450C7040,450,6880,450,6720,450C6560,450,6400,450,6240,450C6080,450,5920,450,5760,450C5600,450,5440,450,5280,450C5120,450,4960,450,4800,450C4640,450,4480,450,4320,450C4160,450,4000,450,3840,450C3680,450,3520,450,3360,450C3200,450,3040,450,2880,450C2720,450,2560,450,2400,450C2240,450,2080,450,1920,450C1760,450,1600,450,1440,450C1280,450,1120,450,960,450C800,450,640,450,480,450C320,450,160,450,80,450L0,450Z"/></svg>